<svg width="358" height="80" viewBox="0 0 358 80" fill="none" xmlns="http://www.w3.org/2000/svg">
<rect width="358" height="80" rx="12" fill="#FFF1CC"/>
<path d="M29.625 29.1406H27.5312V36.3594H25.7969V22.2656H27.5312V27.7188H29.625V29.1406ZM18.6875 31.4375C20.8281 31.401 22.8333 31.1875 24.7031 30.7969L24.8906 32.2656C22.8333 32.6719 20.5885 32.875 18.1562 32.875H16.9688V23.6406H18.6875V31.4375ZM37.4688 30.1562H30.7812V23.4844H37.4688V30.1562ZM32.4844 28.7812H35.7656V24.875H32.4844V28.7812ZM41.4375 26.4062H43.4062V27.8594H41.4375V32.5781H39.7031V22.2656H41.4375V26.4062ZM42 36.1094H32.3906V31.5781H34.125V34.7031H42V36.1094ZM48.7031 23.25C49.4375 23.2448 50.099 23.388 50.6875 23.6797C51.2812 23.9661 51.7448 24.3698 52.0781 24.8906C52.4167 25.4115 52.5885 26 52.5938 26.6562C52.5885 27.3177 52.4167 27.9089 52.0781 28.4297C51.7448 28.9505 51.2839 29.3568 50.6953 29.6484C50.1068 29.9349 49.4427 30.0781 48.7031 30.0781C47.9688 30.0781 47.3073 29.9323 46.7188 29.6406C46.1302 29.349 45.6667 28.9453 45.3281 28.4297C44.9948 27.9089 44.8281 27.3177 44.8281 26.6562C44.8281 26 44.9948 25.4115 45.3281 24.8906C45.6667 24.3698 46.1302 23.9661 46.7188 23.6797C47.3125 23.388 47.974 23.2448 48.7031 23.25ZM48.7031 24.75C48.2917 24.75 47.9219 24.8281 47.5938 24.9844C47.2656 25.1406 47.0078 25.3646 46.8203 25.6562C46.638 25.9427 46.5469 26.276 46.5469 26.6562C46.5469 27.0417 46.638 27.3802 46.8203 27.6719C47.0078 27.9583 47.2656 28.1797 47.5938 28.3359C47.9219 28.487 48.2917 28.5625 48.7031 28.5625C49.1198 28.5625 49.4922 28.487 49.8203 28.3359C50.1536 28.1797 50.4141 27.9583 50.6016 27.6719C50.7943 27.3802 50.8906 27.0417 50.8906 26.6562C50.8906 26.276 50.7943 25.9427 50.6016 25.6562C50.4141 25.3646 50.1536 25.1406 49.8203 24.9844C49.4922 24.8281 49.1198 24.75 48.7031 24.75ZM55.8906 36.4062H54.1562V22.2656H55.8906V36.4062ZM44.1875 32.0312C45.9167 32.0312 47.5312 32.0026 49.0312 31.9453C50.5365 31.8828 51.9635 31.7552 53.3125 31.5625L53.4531 32.8281C52.0573 33.099 50.638 33.2708 49.1953 33.3438C47.7578 33.4167 46.1615 33.4531 44.4062 33.4531L44.1875 32.0312ZM74.6562 34.6719H61.75V33.25H67.3125V30.1719H63.1719V23.3594H73.1719V30.1719H69.0312V33.25H74.6562V34.6719ZM64.875 28.8125H71.4531V24.75H64.875V28.8125ZM87.3438 30.2812H85.5938V22.2812H87.3438V30.2812ZM87.3438 36.2188H77.9688V30.9688H87.3438V36.2188ZM79.6875 34.8125H85.6406V32.3438H79.6875V34.8125ZM79.6406 22.9531C80.3594 22.9531 81.0078 23.0964 81.5859 23.3828C82.1641 23.6641 82.6172 24.0625 82.9453 24.5781C83.2734 25.0885 83.4375 25.6719 83.4375 26.3281C83.4375 26.9635 83.2708 27.5365 82.9375 28.0469C82.6094 28.5521 82.1562 28.9505 81.5781 29.2422C81 29.5286 80.3542 29.6719 79.6406 29.6719C78.9219 29.6719 78.2708 29.5286 77.6875 29.2422C77.1094 28.9557 76.6536 28.5573 76.3203 28.0469C75.9922 27.5365 75.8281 26.9635 75.8281 26.3281C75.8281 25.6719 75.9922 25.0885 76.3203 24.5781C76.6536 24.0625 77.1094 23.6641 77.6875 23.3828C78.2656 23.0964 78.9167 22.9531 79.6406 22.9531ZM79.6406 24.4219C79.2292 24.4219 78.862 24.5 78.5391 24.6562C78.2214 24.8125 77.9714 25.0339 77.7891 25.3203C77.612 25.6068 77.526 25.9427 77.5312 26.3281C77.526 26.7031 77.612 27.0339 77.7891 27.3203C77.9714 27.6016 78.2214 27.8203 78.5391 27.9766C78.862 28.1276 79.2292 28.2031 79.6406 28.2031C80.0469 28.2031 80.4062 28.1276 80.7188 27.9766C81.0365 27.8203 81.2839 27.6016 81.4609 27.3203C81.6432 27.0339 81.7344 26.7031 81.7344 26.3281C81.7344 25.9427 81.6458 25.6068 81.4688 25.3203C81.2917 25.0339 81.0443 24.8125 80.7266 24.6562C80.4089 24.5 80.0469 24.4219 79.6406 24.4219ZM90.8438 38.2656H89.3594L90.1719 33.8906H92.1562L90.8438 38.2656ZM102.609 26.2812C102.609 27.0573 102.755 27.8255 103.047 28.5859C103.344 29.3411 103.766 30.0208 104.312 30.625C104.865 31.224 105.51 31.6771 106.25 31.9844L105.297 33.3594C104.479 33.0104 103.768 32.487 103.164 31.7891C102.56 31.0911 102.091 30.2812 101.758 29.3594C101.424 30.349 100.953 31.2266 100.344 31.9922C99.7396 32.7526 99.0312 33.3229 98.2188 33.7031L97.2188 32.3438C97.9427 32.0104 98.5781 31.5208 99.125 30.875C99.6771 30.2292 100.102 29.5052 100.398 28.7031C100.695 27.8958 100.844 27.0885 100.844 26.2812V25.0938H97.7344V23.6562H105.703V25.0938H102.609V26.2812ZM109.031 36.3906H107.281V22.2656H109.031V36.3906ZM122.438 24.0469C122.438 24.8021 122.417 25.4766 122.375 26.0703C122.339 26.6589 122.245 27.3229 122.094 28.0625H124.016V29.4688H111.109V28.0625H120.336C120.487 27.375 120.586 26.7448 120.633 26.1719C120.68 25.599 120.703 24.9896 120.703 24.3438H112.703V22.9531H122.438V24.0469ZM122.422 36.2188H112.656V31.1094H122.422V36.2188ZM114.359 34.8125H120.703V32.4688H114.359V34.8125ZM135.906 30.1562H129.219V23.4844H135.906V30.1562ZM130.922 28.7812H134.203V24.875H130.922V28.7812ZM139.875 26.4062H141.844V27.8594H139.875V32.5781H138.141V22.2656H139.875V26.4062ZM140.438 36.1094H130.828V31.5781H132.562V34.7031H140.438V36.1094ZM155.453 29.2969H142.562V27.9219H155.453V29.2969ZM153.922 27.0156H144.203V22.625H153.797V24.0156H145.938V25.6406H153.922V27.0156ZM153.828 33.8125H145.797V34.8906H154.219V36.25H144.094V32.5625H152.125V31.5781H144.078V30.2656H153.828V33.8125ZM160.25 23.2969C160.885 23.2969 161.458 23.4661 161.969 23.8047C162.479 24.1432 162.896 24.6276 163.219 25.2578C163.542 25.8828 163.742 26.6198 163.82 27.4688H166.516V22.2656H168.234V36.4062H166.516V28.875H163.844C163.781 29.7708 163.591 30.5521 163.273 31.2188C162.956 31.8802 162.536 32.3906 162.016 32.75C161.495 33.1042 160.906 33.2812 160.25 33.2812C159.542 33.2812 158.914 33.0781 158.367 32.6719C157.82 32.2656 157.393 31.6849 157.086 30.9297C156.779 30.1745 156.625 29.2917 156.625 28.2812C156.625 27.2812 156.779 26.4062 157.086 25.6562C157.393 24.901 157.82 24.3203 158.367 23.9141C158.919 23.5026 159.547 23.2969 160.25 23.2969ZM160.25 24.8594C159.859 24.8594 159.516 24.9974 159.219 25.2734C158.922 25.5443 158.693 25.9375 158.531 26.4531C158.37 26.9635 158.292 27.5729 158.297 28.2812C158.292 28.9948 158.37 29.6094 158.531 30.125C158.693 30.6406 158.922 31.0365 159.219 31.3125C159.516 31.5833 159.859 31.7188 160.25 31.7188C160.641 31.7188 160.982 31.5833 161.273 31.3125C161.57 31.0365 161.799 30.6406 161.961 30.125C162.128 29.6094 162.214 28.9948 162.219 28.2812C162.214 27.5729 162.128 26.9609 161.961 26.4453C161.799 25.9297 161.57 25.5365 161.273 25.2656C160.982 24.9948 160.641 24.8594 160.25 24.8594ZM172.656 25.2969H176.328V23.4062H178.062V29.8594H175.375V32.125C176.734 32.0521 177.87 31.9531 178.781 31.8281L178.906 33.1094C178 33.2656 177.049 33.3828 176.055 33.4609C175.065 33.5391 174.146 33.5911 173.297 33.6172C172.453 33.638 171.453 33.651 170.297 33.6562L170.047 32.2188H170.781L173.641 32.1797V29.8594H170.938V23.4062H172.656V25.2969ZM176.328 28.4688V26.625H172.656V28.4688H176.328ZM181.328 28H183.375V29.4531H181.328V36.3906H179.594V22.2656H181.328V28ZM196.953 34.6719H184.047V33.25H187.031V29.6797C186.458 29.3464 186.013 28.9323 185.695 28.4375C185.383 27.9427 185.229 27.3854 185.234 26.7656C185.229 26.0312 185.451 25.3802 185.898 24.8125C186.346 24.2448 186.969 23.8073 187.766 23.5C188.562 23.1875 189.464 23.0312 190.469 23.0312C191.479 23.0312 192.383 23.1875 193.18 23.5C193.982 23.8073 194.607 24.2448 195.055 24.8125C195.508 25.375 195.734 26.026 195.734 26.7656C195.734 27.3698 195.581 27.9193 195.273 28.4141C194.971 28.9036 194.542 29.3125 193.984 29.6406V33.25H196.953V34.6719ZM190.469 24.4062C189.766 24.4062 189.146 24.5026 188.609 24.6953C188.078 24.8828 187.664 25.1536 187.367 25.5078C187.076 25.862 186.932 26.2812 186.938 26.7656C186.932 27.2448 187.076 27.6615 187.367 28.0156C187.664 28.3698 188.081 28.6432 188.617 28.8359C189.154 29.0286 189.771 29.125 190.469 29.125C191.167 29.125 191.784 29.0286 192.32 28.8359C192.862 28.6432 193.281 28.3698 193.578 28.0156C193.88 27.6615 194.031 27.2448 194.031 26.7656C194.031 26.2865 193.88 25.8698 193.578 25.5156C193.281 25.1562 192.865 24.8828 192.328 24.6953C191.792 24.5026 191.172 24.4062 190.469 24.4062ZM192.219 33.25V30.3047C191.667 30.4245 191.083 30.4844 190.469 30.4844C189.88 30.4844 189.307 30.4271 188.75 30.3125V33.25H192.219ZM200.609 31.6719H198.844L198.656 23.6875H200.781L200.609 31.6719ZM199.734 35.125C199.516 35.125 199.312 35.0703 199.125 34.9609C198.938 34.8516 198.789 34.7031 198.68 34.5156C198.57 34.3281 198.516 34.125 198.516 33.9062C198.516 33.6927 198.57 33.4948 198.68 33.3125C198.789 33.125 198.938 32.9766 199.125 32.8672C199.312 32.7578 199.516 32.7031 199.734 32.7031C199.943 32.7031 200.138 32.7578 200.32 32.8672C200.508 32.9766 200.656 33.125 200.766 33.3125C200.88 33.4948 200.938 33.6927 200.938 33.9062C200.938 34.125 200.88 34.3281 200.766 34.5156C200.656 34.7031 200.508 34.8516 200.32 34.9609C200.138 35.0703 199.943 35.125 199.734 35.125Z" fill="#0D0D0D"/>
<path d="M25.9941 49.1934H27.8262V50.1094H25.9941V53.2812H24.9277V45.9531H25.9941V49.1934ZM25.9941 57.9434H18.3242V53.9785H25.9941V57.9434ZM19.377 57.0684H24.9277V54.8398H19.377V57.0684ZM23.7656 48.1406H16.5195V47.252H19.6094V45.8574H20.6758V47.252H23.7656V48.1406ZM20.1426 48.7422C20.7214 48.7422 21.2295 48.8333 21.667 49.0156C22.109 49.1934 22.4508 49.4463 22.6924 49.7744C22.9385 50.098 23.0638 50.474 23.0684 50.9023C23.0638 51.3398 22.9385 51.7227 22.6924 52.0508C22.4508 52.3789 22.109 52.6318 21.667 52.8096C21.2295 52.9873 20.7214 53.0762 20.1426 53.0762C19.5592 53.0762 19.0443 52.9873 18.5977 52.8096C18.1556 52.6318 17.8138 52.3789 17.5723 52.0508C17.3307 51.7227 17.2122 51.3398 17.2168 50.9023C17.2122 50.474 17.3307 50.098 17.5723 49.7744C17.8138 49.4463 18.1556 49.1934 18.5977 49.0156C19.0443 48.8333 19.5592 48.7422 20.1426 48.7422ZM20.1426 49.5762C19.7643 49.5762 19.4294 49.6331 19.1377 49.7471C18.8506 49.8564 18.6273 50.0114 18.4678 50.2119C18.3128 50.4124 18.2376 50.6426 18.2422 50.9023C18.2376 51.1758 18.3128 51.415 18.4678 51.6201C18.6273 51.8206 18.8506 51.9756 19.1377 52.085C19.4248 52.1943 19.7598 52.2513 20.1426 52.2559C20.5208 52.2513 20.8535 52.1943 21.1406 52.085C21.4277 51.9756 21.651 51.8206 21.8105 51.6201C21.9701 51.415 22.0521 51.1758 22.0566 50.9023C22.0521 50.6426 21.9678 50.4124 21.8037 50.2119C21.6442 50.0114 21.4209 49.8564 21.1338 49.7471C20.8467 49.6331 20.5163 49.5762 20.1426 49.5762ZM31.6133 47.4297C31.6042 48.9382 31.4469 50.3441 31.1416 51.6475C30.8363 52.9463 30.278 54.1335 29.4668 55.209L28.6191 54.7168C29.3301 53.8281 29.8382 52.8529 30.1436 51.791C30.4535 50.7292 30.6312 49.5716 30.6768 48.3184H28.8652V47.4297H31.6133ZM34.3066 47.4297C34.3021 48.0586 34.2884 48.6351 34.2656 49.1592C34.2428 49.6833 34.1973 50.2096 34.1289 50.7383H35.7422V46.2812H36.7676V57.4922H35.7422V51.627H33.9854C33.6709 53.3633 33.0716 54.8262 32.1875 56.0156L31.3535 55.5098C31.8776 54.8398 32.2832 54.1016 32.5703 53.2949C32.862 52.4883 33.0625 51.6839 33.1719 50.8818C33.2812 50.0752 33.3451 49.2207 33.3633 48.3184H31.9961V47.4297H34.3066ZM39.0508 58.1074H38.0117V45.9531H39.0508V58.1074ZM50.1934 48.8652H52.0391V49.7539H50.1934V52.6387H49.127V45.9121H50.1934V48.8652ZM50.1934 55.9609H43.5215V57.1504H50.6445V57.9707H42.4688V55.168H49.127V54.0742H42.4414V53.2676H50.1934V55.9609ZM47.9648 47.9219H40.7188V47.0605H43.8086V45.8301H44.875V47.0605H47.9648V47.9219ZM44.3418 48.4688C44.9251 48.4688 45.4355 48.5508 45.873 48.7148C46.3151 48.8743 46.6569 49.1045 46.8984 49.4053C47.14 49.7061 47.263 50.0592 47.2676 50.4648C47.263 50.8704 47.14 51.2236 46.8984 51.5244C46.6569 51.8252 46.3151 52.0576 45.873 52.2217C45.4355 52.3812 44.9251 52.4609 44.3418 52.4609C43.7539 52.4609 43.2367 52.3812 42.79 52.2217C42.348 52.0576 42.0062 51.8252 41.7646 51.5244C41.5277 51.2236 41.4115 50.8704 41.416 50.4648C41.4115 50.0592 41.5277 49.7061 41.7646 49.4053C42.0062 49.1045 42.348 48.8743 42.79 48.7148C43.2367 48.5508 43.7539 48.4688 44.3418 48.4688ZM44.3418 49.2617C43.9635 49.2617 43.6286 49.3118 43.3369 49.4121C43.0498 49.5124 42.8265 49.6536 42.667 49.8359C42.512 50.0182 42.4368 50.2279 42.4414 50.4648C42.4368 50.7064 42.512 50.9183 42.667 51.1006C42.8265 51.2783 43.0498 51.415 43.3369 51.5107C43.624 51.6064 43.959 51.6543 44.3418 51.6543C44.9206 51.6543 45.3831 51.5495 45.7295 51.3398C46.0758 51.1257 46.2513 50.834 46.2559 50.4648C46.2513 50.2233 46.1693 50.0137 46.0098 49.8359C45.8503 49.6536 45.627 49.5124 45.3398 49.4121C45.0527 49.3118 44.7201 49.2617 44.3418 49.2617ZM66.7227 58.1074H65.6836V45.9531H66.7227V58.1074ZM64.2754 57.4922H63.25V51.5859H61.6846C61.6481 52.3698 61.5182 53.0511 61.2949 53.6299C61.0716 54.2041 60.7686 54.6484 60.3857 54.9629C60.0029 55.2728 59.5632 55.4277 59.0664 55.4277C58.5423 55.4277 58.082 55.2568 57.6855 54.915C57.2936 54.5687 56.9906 54.0765 56.7764 53.4385C56.5622 52.8005 56.4551 52.0553 56.4551 51.2031C56.4551 50.3509 56.5622 49.6058 56.7764 48.9678C56.9906 48.3298 57.2936 47.8398 57.6855 47.498C58.082 47.1517 58.5423 46.9785 59.0664 46.9785C59.554 46.9785 59.987 47.1289 60.3652 47.4297C60.7435 47.7305 61.0443 48.1611 61.2676 48.7217C61.4954 49.2822 61.6322 49.9408 61.6777 50.6973H63.25V46.2129H64.2754V57.4922ZM59.0664 47.9902C58.7383 47.9902 58.4535 48.1201 58.2119 48.3799C57.9704 48.6396 57.7835 49.0133 57.6514 49.501C57.5238 49.984 57.4622 50.5514 57.4668 51.2031C57.4622 51.8548 57.5238 52.4222 57.6514 52.9053C57.7835 53.3883 57.9704 53.7598 58.2119 54.0195C58.458 54.2793 58.7428 54.4069 59.0664 54.4023C59.39 54.4069 59.6725 54.2793 59.9141 54.0195C60.1602 53.7598 60.3493 53.3883 60.4814 52.9053C60.6136 52.4222 60.6797 51.8548 60.6797 51.2031C60.6797 50.5469 60.6136 49.9772 60.4814 49.4941C60.3493 49.0111 60.1624 48.6396 59.9209 48.3799C59.6794 48.1201 59.3945 47.9902 59.0664 47.9902ZM77.9883 48.4688C77.9883 49.166 77.9792 49.7744 77.9609 50.2939C77.9473 50.8135 77.9085 51.4196 77.8447 52.1123C77.7809 52.805 77.6784 53.5592 77.5371 54.375L76.4434 54.2656C76.5938 53.4954 76.7054 52.7708 76.7783 52.0918C76.8512 51.4082 76.8945 50.8066 76.9082 50.2871C76.9264 49.763 76.9355 49.1569 76.9355 48.4688V48.1406H69.6074V47.252H77.9883V48.4688ZM79.4785 56.3164H68.4043V55.4277H79.4785V56.3164ZM91.6328 56.4941H80.5039V55.5918H91.6328V56.4941ZM86.6016 48.6328C86.6016 49.2526 86.8249 49.8428 87.2715 50.4033C87.7181 50.9639 88.29 51.4355 88.9873 51.8184C89.6846 52.2012 90.3887 52.4518 91.0996 52.5703L90.6621 53.418C90.0286 53.2949 89.4066 53.0853 88.7959 52.7891C88.1898 52.4883 87.6452 52.1169 87.1621 51.6748C86.679 51.2282 86.3122 50.7337 86.0615 50.1914C85.8109 50.7337 85.444 51.2327 84.9609 51.6885C84.4824 52.1396 83.9401 52.5202 83.334 52.8301C82.7324 53.1354 82.1217 53.3496 81.502 53.4727L81.0508 52.6113C81.748 52.4883 82.4408 52.2331 83.1289 51.8457C83.8216 51.4538 84.389 50.9753 84.8311 50.4102C85.2731 49.8405 85.4941 49.248 85.4941 48.6328V48.0723H81.4199V47.1836H90.6758V48.0723H86.6016V48.6328ZM103.691 51.9277H92.6035V51.0664H103.691V51.9277ZM102.365 50.0684H94.0801V46.377H102.242V47.2383H95.1602V49.1934H102.365V50.0684ZM102.256 55.8379H95.0371V57.0957H102.625V57.9707H93.9707V55.0312H101.203V53.8555H93.9434V53.0215H102.256V55.8379ZM110.24 46.1719C111.143 46.1719 111.915 46.2539 112.558 46.418C113.2 46.5775 113.69 46.8145 114.027 47.1289C114.365 47.4388 114.533 47.8171 114.533 48.2637C114.533 48.9473 114.16 49.4714 113.412 49.8359C112.665 50.2005 111.607 50.3874 110.24 50.3965C109.338 50.3919 108.563 50.3076 107.916 50.1436C107.273 49.9795 106.781 49.7402 106.439 49.4258C106.102 49.1068 105.934 48.7194 105.934 48.2637C105.934 47.8171 106.102 47.4388 106.439 47.1289C106.781 46.8145 107.273 46.5775 107.916 46.418C108.563 46.2539 109.338 46.1719 110.24 46.1719ZM110.24 46.9785C109.57 46.9785 108.996 47.0309 108.518 47.1357C108.039 47.236 107.674 47.3841 107.424 47.5801C107.173 47.7715 107.05 47.9993 107.055 48.2637C107.05 48.6829 107.326 49.0065 107.882 49.2344C108.438 49.4622 109.224 49.5762 110.24 49.5762C111.252 49.5762 112.038 49.4622 112.599 49.2344C113.159 49.0065 113.439 48.6829 113.439 48.2637C113.439 47.9993 113.312 47.7715 113.057 47.5801C112.801 47.3887 112.435 47.2406 111.956 47.1357C111.478 47.0309 110.906 46.9785 110.24 46.9785ZM115.777 52.0918H104.703V51.2168H115.777V52.0918ZM114.355 55.8652H107.137V57.123H114.725V57.9707H106.07V55.0723H113.303V53.9648H106.043V53.1445H114.355V55.8652ZM126.455 52.6523H120.836V47.0605H126.455V52.6523ZM121.889 51.791H125.416V47.9355H121.889V51.791ZM129.818 49.6582H131.65V50.5605H129.818V54.8672H128.752V45.9531H129.818V49.6582ZM130.379 57.8477H122.217V54.0195H123.27V56.9453H130.379V57.8477ZM143.791 51.709H141.822V58.1074H140.756V45.9531H141.822V50.8066H143.791V51.709ZM133.988 54.1152C134.941 54.1107 135.873 54.0651 136.784 53.9785C137.696 53.8919 138.628 53.7507 139.58 53.5547L139.717 54.4707C138.728 54.6712 137.759 54.8125 136.812 54.8945C135.868 54.9766 134.895 55.0176 133.893 55.0176H132.922V47.1562H133.988V54.1152ZM147.059 47.3203H153.074V46.1582H154.141V50.1504H150.559V51.3535H155.59V52.2285H144.516V51.3535H149.506V50.1504H145.992V46.1582H147.059V47.3203ZM153.074 49.3164V48.1406H147.059V49.3164H153.074ZM154.168 55.9336H146.949V57.123H154.537V57.9707H145.883V55.1406H153.115V54.0605H145.855V53.2402H154.168V55.9336ZM166.24 50.9707H168.086V51.873H166.24V58.1074H165.16V45.9531H166.24V50.9707ZM160.307 47.2793C160.298 48.8652 160.074 50.335 159.637 51.6885C159.204 53.0374 158.47 54.2611 157.436 55.3594L156.574 54.7441C157.454 53.8464 158.108 52.8506 158.536 51.7568C158.965 50.6585 159.215 49.4668 159.288 48.1816H156.957V47.2793H160.307ZM163.643 47.2793C163.633 49.0111 163.438 50.6243 163.055 52.1191C162.672 53.6094 161.965 54.9583 160.936 56.166L160.061 55.5645C160.94 54.571 161.574 53.4499 161.961 52.2012C162.353 50.9525 162.576 49.6126 162.631 48.1816H160.689V47.2793H163.643ZM179.844 56.5488H168.715V55.6465H171.477V52.3652C170.948 52.0918 170.538 51.7409 170.246 51.3125C169.954 50.8796 169.809 50.3919 169.809 49.8496C169.809 49.2298 169.998 48.6852 170.376 48.2158C170.754 47.7419 171.278 47.375 171.948 47.1152C172.623 46.8555 173.391 46.7233 174.252 46.7188C175.113 46.7233 175.879 46.8555 176.549 47.1152C177.223 47.375 177.75 47.7419 178.128 48.2158C178.506 48.6852 178.695 49.2298 178.695 49.8496C178.695 50.3828 178.554 50.8636 178.271 51.292C177.989 51.7158 177.592 52.0645 177.082 52.3379V55.6465H179.844V56.5488ZM174.252 47.6074C173.591 47.6029 173.003 47.694 172.488 47.8809C171.973 48.0677 171.57 48.332 171.278 48.6738C170.991 49.0111 170.848 49.403 170.848 49.8496C170.848 50.2962 170.991 50.6927 171.278 51.0391C171.57 51.3809 171.973 51.6475 172.488 51.8389C173.003 52.0257 173.591 52.1191 174.252 52.1191C174.908 52.1191 175.494 52.0234 176.009 51.832C176.524 51.6406 176.927 51.374 177.219 51.0322C177.51 50.6904 177.656 50.2962 177.656 49.8496C177.656 49.403 177.51 49.0111 177.219 48.6738C176.927 48.332 176.524 48.0677 176.009 47.8809C175.494 47.694 174.908 47.6029 174.252 47.6074ZM176.002 55.6465V52.7549C175.46 52.8962 174.876 52.9668 174.252 52.9668C173.623 52.9668 173.049 52.8984 172.529 52.7617V55.6465H176.002ZM182.756 54.1426C182.76 53.5547 182.82 53.0785 182.934 52.7139C183.052 52.3493 183.216 52.0553 183.426 51.832C183.635 51.6087 183.918 51.39 184.273 51.1758C184.574 50.9935 184.816 50.7633 184.998 50.4854C185.18 50.2028 185.271 49.8815 185.271 49.5215C185.271 49.2207 185.199 48.9564 185.053 48.7285C184.911 48.4961 184.715 48.3184 184.465 48.1953C184.219 48.0677 183.945 48.0039 183.645 48.0039C183.371 48.0039 183.114 48.0609 182.872 48.1748C182.635 48.2842 182.437 48.4596 182.277 48.7012C182.122 48.9382 182.031 49.2344 182.004 49.5898H180.76C180.783 49.0521 180.924 48.585 181.184 48.1885C181.443 47.792 181.787 47.4889 182.216 47.2793C182.644 47.0697 183.12 46.9648 183.645 46.9648C184.205 46.9648 184.7 47.0788 185.128 47.3066C185.556 47.5299 185.887 47.8398 186.119 48.2363C186.356 48.6328 186.475 49.0794 186.475 49.5762C186.475 50.5833 186.023 51.3626 185.121 51.9141C184.829 52.0918 184.599 52.2764 184.431 52.4678C184.267 52.6592 184.144 52.887 184.062 53.1514C183.984 53.4157 183.941 53.7461 183.932 54.1426V54.2109H182.756V54.1426ZM183.385 57.082C183.225 57.082 183.077 57.0433 182.94 56.9658C182.808 56.8838 182.701 56.7744 182.619 56.6377C182.542 56.501 182.505 56.3529 182.51 56.1934C182.505 56.0384 182.542 55.8949 182.619 55.7627C182.701 55.626 182.808 55.5189 182.94 55.4414C183.077 55.3594 183.225 55.3184 183.385 55.3184C183.54 55.3184 183.683 55.3594 183.815 55.4414C183.952 55.5189 184.059 55.626 184.137 55.7627C184.219 55.8949 184.26 56.0384 184.26 56.1934C184.26 56.3529 184.219 56.501 184.137 56.6377C184.059 56.7744 183.952 56.8838 183.815 56.9658C183.683 57.0433 183.54 57.082 183.385 57.082Z" fill="#737373"/>
<path fill-rule="evenodd" clip-rule="evenodd" d="M280.975 74.001C281.113 74.001 281.225 74.1129 281.225 74.251V76.0723L282.759 77.0006C282.877 77.0721 282.915 77.2258 282.843 77.3439C282.772 77.4621 282.618 77.4999 282.5 77.4284L281.225 76.6568V78.251C281.225 78.389 281.113 78.501 280.975 78.501C280.837 78.501 280.725 78.389 280.725 78.251V76.6066L279.388 77.4899C279.273 77.566 279.118 77.5343 279.041 77.4191C278.965 77.3039 278.997 77.1488 279.112 77.0727L280.725 76.0073V74.251C280.725 74.1129 280.837 74.001 280.975 74.001Z" fill="#262626"/>
<path fill-rule="evenodd" clip-rule="evenodd" d="M288.234 74.2798C288.097 74.2971 288 74.4222 288.017 74.5592L288.203 76.0303L286.766 76.7384C286.642 76.7994 286.591 76.9492 286.652 77.0731C286.713 77.197 286.863 77.2479 286.986 77.1869L288.167 76.6054L287.934 77.9134C287.909 78.0493 288 78.1792 288.136 78.2034C288.272 78.2277 288.402 78.1372 288.426 78.0013L288.681 76.5759L289.685 77.3419C289.795 77.4256 289.952 77.4045 290.035 77.2947C290.119 77.1849 290.098 77.0281 289.988 76.9443L288.699 75.9608L288.513 74.4964C288.496 74.3594 288.371 74.2624 288.234 74.2798Z" fill="#262626"/>
<path fill-rule="evenodd" clip-rule="evenodd" d="M253.53 74.9985C253.668 74.9985 253.78 75.1105 253.78 75.2485V77.1581L255.001 78.6257C255.09 78.7318 255.075 78.8895 254.969 78.9778C254.863 79.0661 254.705 79.0517 254.617 78.9456L253.78 77.9396V79.2485C253.78 79.3866 253.668 79.4985 253.53 79.4985C253.391 79.4985 253.28 79.3866 253.28 79.2485V77.9396L252.442 78.9456C252.354 79.0517 252.196 79.0661 252.09 78.9778C251.984 78.8895 251.97 78.7318 252.058 78.6257L253.28 77.1581V75.2485C253.28 75.1105 253.391 74.9985 253.53 74.9985Z" fill="#262626"/>
<path fill-rule="evenodd" clip-rule="evenodd" d="M263.478 74.3939C263.611 74.3583 263.748 74.4377 263.784 74.5711L264.275 76.4169L265.834 77.5208C265.947 77.6006 265.974 77.7567 265.894 77.8693C265.814 77.982 265.658 78.0087 265.545 77.9289L264.477 77.1721L264.813 78.4362C264.849 78.5696 264.77 78.7066 264.636 78.7421C264.503 78.7777 264.366 78.6984 264.33 78.5649L263.994 77.3017L263.444 78.4889C263.386 78.6141 263.237 78.6687 263.112 78.6106C262.987 78.5526 262.932 78.404 262.99 78.2787L263.793 76.5466L263.3 74.6998C263.265 74.5664 263.344 74.4294 263.478 74.3939Z" fill="#262626"/>
<path fill-rule="evenodd" clip-rule="evenodd" d="M305.939 73.4454C306.074 73.4766 306.158 73.6109 306.126 73.7454L305.716 75.5198L307.001 76.7701C307.1 76.8664 307.102 77.0247 307.006 77.1236C306.909 77.2226 306.751 77.2248 306.652 77.1285L305.584 76.0892L305.224 77.6423C305.193 77.7768 305.059 77.8606 304.924 77.8295C304.79 77.7984 304.706 77.6641 304.737 77.5296L305.108 75.9275L303.606 76.4865C303.477 76.5347 303.333 76.4688 303.285 76.3394C303.236 76.21 303.302 76.0661 303.432 76.0179L305.243 75.3437L305.639 73.6326C305.671 73.4981 305.805 73.4143 305.939 73.4454Z" fill="#262626"/>
<path fill-rule="evenodd" clip-rule="evenodd" d="M313.939 74.4454C314.073 74.4766 314.157 74.6109 314.126 74.7454L313.715 76.5198L315 77.7701C315.099 77.8664 315.101 78.0247 315.005 78.1236C314.909 78.2226 314.751 78.2248 314.652 78.1285L313.583 77.0892L313.224 78.6423C313.193 78.7768 313.058 78.8606 312.924 78.8295C312.789 78.7984 312.706 78.6641 312.737 78.5296L313.108 76.9275L311.606 77.4865C311.476 77.5347 311.332 77.4688 311.284 77.3394C311.236 77.21 311.302 77.0661 311.431 77.0179L313.243 76.3437L313.639 74.6326C313.67 74.4981 313.804 74.4143 313.939 74.4454Z" fill="#262626"/>
<path d="M325.618 60.9726C325.618 69.0297 319.086 75.5613 311.029 75.5613C302.972 75.5613 296.441 69.0297 296.441 60.9726C296.441 52.9155 302.972 46.3839 311.029 46.3839C312.952 46.3839 314.316 47.056 315.54 48.0576C316.158 48.5635 316.74 49.1527 317.343 49.7887C317.48 49.9336 317.619 50.0812 317.759 50.2306C318.23 50.732 318.721 51.2539 319.246 51.7651C319.723 52.2293 320.215 52.68 320.707 53.1296C321.692 54.0313 322.673 54.9285 323.513 55.9213C324.753 57.3879 325.618 58.9934 325.618 60.9726Z" fill="#FDB800" stroke="#262626" stroke-width="0.767826"/>
<path fill-rule="evenodd" clip-rule="evenodd" d="M317.116 60.2808C316.994 60.217 316.843 60.2645 316.779 60.3869C316.715 60.5093 316.762 60.6603 316.885 60.7242L317.03 60.7995C317.474 61.0298 317.98 61.2922 318.352 61.5819C318.559 61.743 318.701 61.8954 318.772 62.0342C318.836 62.1599 318.841 62.2679 318.78 62.3849C318.78 62.3845 318.78 62.3847 318.779 62.3853C318.777 62.3886 318.766 62.4053 318.737 62.4345C318.706 62.4663 318.663 62.5049 318.608 62.5467C318.497 62.6303 318.349 62.7199 318.176 62.7891C317.833 62.9262 317.416 62.9763 317.003 62.7751C316.913 62.7226 316.797 62.7295 316.714 62.8008C316.614 62.886 316.598 63.0327 316.673 63.1371C316.679 63.1452 316.685 63.153 316.692 63.1604C317.109 63.6502 317.349 64.1573 317.421 64.5859C317.493 65.0187 317.391 65.3355 317.182 65.5148C317.101 65.5844 316.946 65.6352 316.702 65.6279C316.464 65.6208 316.175 65.5589 315.867 65.4471C315.248 65.2227 314.601 64.8149 314.191 64.3357C314.101 64.2308 313.944 64.2185 313.839 64.3083C313.792 64.3479 313.764 64.4007 313.755 64.4564C313.749 64.4876 313.75 64.5204 313.757 64.5532C313.904 65.2289 313.868 65.8585 313.665 66.3394C313.467 66.812 313.107 67.1473 312.573 67.2636C312.085 67.3698 311.592 67.1123 311.155 66.5901C310.723 66.0733 310.393 65.3478 310.245 64.6696C310.216 64.5347 310.083 64.4491 309.948 64.4785C309.813 64.5078 309.727 64.641 309.757 64.7759C309.919 65.521 310.28 66.3234 310.772 66.911C311.259 67.4932 311.924 67.9165 312.679 67.7522C313.388 67.5979 313.871 67.141 314.126 66.5332C314.297 66.1274 314.366 65.6577 314.342 65.1647C314.753 65.4888 315.235 65.7497 315.696 65.9171C316.038 66.0413 316.381 66.1186 316.687 66.1277C316.987 66.1366 317.289 66.0808 317.507 65.8947C317.895 65.5625 318.003 65.0408 317.914 64.5037C317.855 64.1512 317.71 63.7764 317.486 63.4069C317.808 63.4235 318.109 63.3543 318.361 63.2534C318.579 63.1663 318.767 63.0537 318.91 62.9451C319.044 62.8438 319.166 62.7252 319.223 62.6161C319.37 62.3348 319.344 62.0545 319.217 61.8067C319.097 61.572 318.888 61.3657 318.659 61.1874C318.248 60.8673 317.699 60.5827 317.262 60.3563L317.116 60.2808Z" fill="#262626"/>
<ellipse cx="300.75" cy="57.9982" rx="0.74863" ry="0.998174" fill="black"/>
<ellipse cx="306.239" cy="57.9982" rx="0.74863" ry="0.998174" fill="black"/>
<path d="M307.955 59.9943L307.103 60.7154" stroke="#F77E7E" stroke-width="0.998174" stroke-linecap="round"/>
<path d="M309.502 60.1037L308.65 60.8248" stroke="#F77E7E" stroke-width="0.998174" stroke-linecap="round"/>
<path d="M301.001 60.5625L301.855 59.7088C302.245 59.3183 302.878 59.3183 303.269 59.7088L304.123 60.5625L303.976 60.7091C303.195 61.4901 301.929 61.4901 301.148 60.7091L301.001 60.5625Z" fill="#EF5533"/>
<path d="M299.049 60.9726C299.049 69.0297 292.517 75.5613 284.46 75.5613C276.403 75.5613 269.871 69.0297 269.871 60.9726C269.871 52.9155 276.403 46.3839 284.46 46.3839C286.383 46.3839 287.746 47.056 288.971 48.0576C289.589 48.5635 290.17 49.1527 290.773 49.7887C290.911 49.9336 291.049 50.0812 291.19 50.2306C291.661 50.7319 292.151 51.2539 292.677 51.7651C293.154 52.2293 293.646 52.68 294.138 53.1296C295.123 54.0313 296.104 54.9285 296.943 55.9213C298.184 57.3879 299.049 58.9934 299.049 60.9726Z" fill="#FDB800" stroke="#262626" stroke-width="0.767826"/>
<path fill-rule="evenodd" clip-rule="evenodd" d="M290.115 60.2823C289.992 60.2184 289.841 60.2659 289.777 60.3884C289.714 60.5108 289.761 60.6618 289.883 60.7256L290.028 60.8009C290.472 61.0313 290.978 61.2937 291.351 61.5834C291.557 61.7444 291.7 61.8969 291.771 62.0357C291.835 62.1614 291.839 62.2693 291.778 62.3864C291.778 62.386 291.778 62.3861 291.778 62.3868C291.776 62.3901 291.764 62.4068 291.736 62.4359C291.705 62.4677 291.661 62.5064 291.606 62.5481C291.496 62.6317 291.347 62.7213 291.174 62.7906C290.831 62.9276 290.414 62.9778 290.001 62.7766C289.912 62.724 289.795 62.731 289.712 62.8022C289.612 62.8875 289.596 63.0341 289.672 63.1385C289.678 63.1467 289.684 63.1545 289.691 63.1619C290.108 63.6517 290.348 64.1588 290.419 64.5874C290.491 65.0201 290.39 65.3369 290.18 65.5162C290.099 65.5858 289.945 65.6367 289.701 65.6294C289.463 65.6223 289.173 65.5604 288.865 65.4486C288.247 65.2241 287.6 64.8163 287.19 64.3372C287.1 64.2323 286.942 64.22 286.837 64.3098C286.791 64.3494 286.763 64.4022 286.753 64.4579C286.748 64.4891 286.748 64.5218 286.755 64.5547C286.902 65.2304 286.866 65.8599 286.664 66.3409C286.465 66.8135 286.106 67.1488 285.571 67.2651C285.083 67.3713 284.591 67.1137 284.154 66.5916C283.721 66.0748 283.391 65.3493 283.244 64.671C283.214 64.5361 283.081 64.4506 282.946 64.4799C282.811 64.5093 282.726 64.6424 282.755 64.7774C282.917 65.5225 283.279 66.3249 283.77 66.9125C284.258 67.4946 284.922 67.918 285.678 67.7536C286.387 67.5994 286.869 67.1424 287.125 66.5346C287.295 66.1289 287.364 65.6592 287.34 65.1661C287.751 65.4903 288.233 65.7511 288.695 65.9186C289.037 66.0427 289.38 66.12 289.686 66.1291C289.986 66.1381 290.288 66.0823 290.506 65.8961C290.894 65.564 291.002 65.0422 290.912 64.5051C290.853 64.1526 290.709 63.7779 290.485 63.4084C290.807 63.425 291.107 63.3558 291.36 63.2549C291.578 63.1678 291.765 63.0552 291.908 62.9466C292.042 62.8452 292.165 62.7267 292.222 62.6176C292.368 62.3363 292.343 62.056 292.216 61.8082C292.096 61.5735 291.887 61.3671 291.658 61.1889C291.246 60.8687 290.697 60.5842 290.26 60.3578L290.115 60.2823Z" fill="#262626"/>
<ellipse cx="273.748" cy="57.9982" rx="0.74863" ry="0.998174" fill="black"/>
<ellipse cx="279.236" cy="57.9982" rx="0.74863" ry="0.998174" fill="black"/>
<path d="M274 60.5586L274.853 59.7049C275.244 59.3144 275.877 59.3144 276.267 59.7049L277.121 60.5586L276.974 60.7052C276.193 61.4862 274.927 61.4862 274.146 60.7052L274 60.5586Z" fill="#EF5533"/>
<path d="M273 55L275 56.5" stroke="black" stroke-width="0.5" stroke-linecap="round"/>
<path d="M280 55L278 56.5" stroke="black" stroke-width="0.5" stroke-linecap="round"/>
<path d="M272.561 61.9726C272.561 70.0297 266.03 76.5613 257.973 76.5613C249.915 76.5613 243.384 70.0297 243.384 61.9726C243.384 53.9155 249.915 47.3839 257.973 47.3839C259.895 47.3839 261.259 48.056 262.483 49.0576C263.101 49.5635 263.683 50.1527 264.286 50.7887C264.423 50.9336 264.562 51.0812 264.702 51.2306C265.174 51.7319 265.664 52.2539 266.189 52.7651C266.666 53.2293 267.159 53.68 267.65 54.1296C268.636 55.0313 269.616 55.9285 270.456 56.9213C271.697 58.3879 272.561 59.9934 272.561 61.9726Z" fill="#FDB800" stroke="#262626" stroke-width="0.767826"/>
<path fill-rule="evenodd" clip-rule="evenodd" d="M263.115 60.2823C262.993 60.2184 262.842 60.2659 262.778 60.3884C262.714 60.5108 262.761 60.6618 262.884 60.7256L263.029 60.8009C263.473 61.0313 263.979 61.2937 264.351 61.5834C264.558 61.7444 264.7 61.8969 264.771 62.0357C264.835 62.1614 264.84 62.2693 264.779 62.3864C264.779 62.386 264.779 62.3861 264.778 62.3868C264.776 62.3901 264.765 62.4068 264.736 62.4359C264.705 62.4677 264.662 62.5064 264.607 62.5481C264.497 62.6317 264.348 62.7213 264.175 62.7906C263.832 62.9276 263.415 62.9778 263.002 62.7766C262.912 62.724 262.796 62.731 262.713 62.8022C262.613 62.8875 262.597 63.0341 262.672 63.1385C262.678 63.1467 262.684 63.1545 262.691 63.1619C263.109 63.6517 263.348 64.1588 263.42 64.5874C263.492 65.0201 263.39 65.3369 263.181 65.5162C263.1 65.5858 262.946 65.6367 262.701 65.6294C262.463 65.6223 262.174 65.5604 261.866 65.4486C261.247 65.2241 260.6 64.8163 260.19 64.3372C260.1 64.2323 259.943 64.22 259.838 64.3098C259.791 64.3494 259.763 64.4022 259.754 64.4579C259.748 64.4891 259.749 64.5218 259.756 64.5547C259.903 65.2304 259.867 65.8599 259.664 66.3409C259.466 66.8135 259.106 67.1488 258.572 67.2651C258.084 67.3713 257.591 67.1137 257.154 66.5916C256.722 66.0748 256.392 65.3493 256.244 64.671C256.215 64.5361 256.082 64.4506 255.947 64.4799C255.812 64.5093 255.726 64.6424 255.756 64.7774C255.918 65.5225 256.279 66.3249 256.771 66.9125C257.258 67.4946 257.923 67.918 258.678 67.7536C259.387 67.5994 259.87 67.1424 260.125 66.5346C260.296 66.1289 260.365 65.6592 260.341 65.1661C260.752 65.4903 261.234 65.7511 261.695 65.9186C262.037 66.0427 262.38 66.12 262.686 66.1291C262.986 66.1381 263.288 66.0823 263.506 65.8961C263.894 65.564 264.002 65.0422 263.913 64.5051C263.854 64.1526 263.709 63.7779 263.486 63.4084C263.807 63.425 264.108 63.3558 264.36 63.2549C264.578 63.1678 264.766 63.0552 264.909 62.9466C265.043 62.8452 265.165 62.7267 265.222 62.6176C265.369 62.3363 265.343 62.056 265.216 61.8082C265.097 61.5735 264.887 61.3671 264.658 61.1889C264.247 60.8687 263.698 60.5842 263.261 60.3578L263.115 60.2823Z" fill="#262626"/>
<ellipse cx="246.749" cy="57.9982" rx="0.74863" ry="0.998174" fill="black"/>
<ellipse cx="252.238" cy="57.9982" rx="0.74863" ry="0.998174" fill="black"/>
<path d="M253.954 59.9943L253.102 60.7154" stroke="#F77E7E" stroke-width="0.998174" stroke-linecap="round"/>
<path d="M255.501 60.1037L254.649 60.8248" stroke="#F77E7E" stroke-width="0.998174" stroke-linecap="round"/>
<path d="M247 60.5625L247.854 59.7088C248.244 59.3183 248.877 59.3183 249.268 59.7088L250.122 60.5625L249.975 60.7091C249.194 61.4901 247.928 61.4901 247.147 60.7091L247 60.5625Z" fill="#EF5533"/>
</svg>
