<svg width="984" height="80" viewBox="0 0 984 80" fill="none" xmlns="http://www.w3.org/2000/svg">
<rect width="984" height="80" rx="12" fill="#FFF1CC"/>
<path d="M402.247 27.5137H399.979V35.582H397.729V19.6211H399.979V25.6855H402.247V27.5137ZM390.101 29.8252C392.368 29.7842 394.554 29.5527 396.657 29.1309L396.886 30.9941C395.644 31.2461 394.39 31.4248 393.124 31.5303C391.864 31.6299 390.575 31.6797 389.257 31.6797H387.868V21.1504H390.101V29.8252ZM411.071 28.6211H403.39V20.9395H411.071V28.6211ZM405.604 26.8633H408.856V22.7324H405.604V26.8633ZM415.606 24.2266H417.769V26.0723H415.606V31.293H413.356V19.6211H415.606V24.2266ZM416.187 35.3359H405.235V30.1504H407.468V33.543H416.187V35.3359ZM423.657 20.6934C424.489 20.6875 425.242 20.8545 425.916 21.1943C426.596 21.5283 427.126 21.9941 427.507 22.5918C427.894 23.1895 428.087 23.8633 428.087 24.6133C428.087 25.3691 427.894 26.0459 427.507 26.6436C427.126 27.2412 426.599 27.71 425.925 28.0498C425.251 28.3838 424.495 28.5508 423.657 28.5508C422.819 28.5508 422.061 28.3838 421.381 28.0498C420.707 27.71 420.177 27.2412 419.79 26.6436C419.403 26.0459 419.21 25.3691 419.21 24.6133C419.21 23.8633 419.403 23.1895 419.79 22.5918C420.177 21.9941 420.71 21.5283 421.39 21.1943C422.069 20.8545 422.825 20.6875 423.657 20.6934ZM423.657 22.627C423.235 22.627 422.854 22.7061 422.515 22.8643C422.175 23.0225 421.908 23.2539 421.715 23.5586C421.527 23.8574 421.437 24.209 421.442 24.6133C421.437 25.0234 421.527 25.3779 421.715 25.6768C421.908 25.9756 422.172 26.2041 422.506 26.3623C422.846 26.5205 423.229 26.5996 423.657 26.5996C424.085 26.5996 424.466 26.5205 424.8 26.3623C425.14 26.2041 425.406 25.9756 425.6 25.6768C425.799 25.3779 425.901 25.0234 425.907 24.6133C425.901 24.2031 425.802 23.8486 425.608 23.5498C425.415 23.251 425.148 23.0225 424.809 22.8643C424.469 22.7061 424.085 22.627 423.657 22.627ZM431.919 35.6523H429.687V19.6211H431.919V35.6523ZM419.421 30.5547C423.177 30.5547 426.294 30.3848 428.772 30.0449L428.948 31.6621C427.378 31.9668 425.775 32.1631 424.141 32.251C422.506 32.3389 420.728 32.3828 418.806 32.3828L418.542 30.5547H419.421ZM452.819 33.7539H438.177V31.9082H444.347V28.6387H439.724V20.7988H451.185V28.6387H446.579V31.9082H452.819V33.7539ZM441.938 26.8809H448.97V22.5918H441.938V26.8809ZM467.128 28.6738H464.878V19.6387H467.128V28.6738ZM467.128 35.4414H456.405V29.3945H467.128V35.4414ZM458.62 33.6484H464.931V31.1699H458.62V33.6484ZM458.356 20.3594C459.183 20.3594 459.927 20.5234 460.589 20.8516C461.257 21.1797 461.781 21.6367 462.162 22.2227C462.543 22.8086 462.733 23.4766 462.733 24.2266C462.733 24.9473 462.543 25.5977 462.162 26.1777C461.781 26.7578 461.257 27.2148 460.589 27.5488C459.921 27.877 459.177 28.041 458.356 28.041C457.536 28.041 456.792 27.877 456.124 27.5488C455.456 27.2148 454.932 26.7578 454.551 26.1777C454.17 25.5977 453.979 24.9473 453.979 24.2266C453.979 23.4766 454.17 22.8086 454.551 22.2227C454.932 21.6367 455.453 21.1797 456.115 20.8516C456.783 20.5234 457.53 20.3594 458.356 20.3594ZM458.356 22.2402C457.929 22.2402 457.548 22.3193 457.214 22.4775C456.886 22.6357 456.628 22.8643 456.44 23.1631C456.259 23.4619 456.171 23.8164 456.177 24.2266C456.171 24.6191 456.259 24.9619 456.44 25.2549C456.628 25.542 456.886 25.7646 457.214 25.9229C457.548 26.0811 457.929 26.1602 458.356 26.1602C458.772 26.1602 459.145 26.0811 459.473 25.9229C459.801 25.7646 460.056 25.542 460.237 25.2549C460.425 24.9619 460.519 24.6191 460.519 24.2266C460.519 23.8164 460.425 23.4619 460.237 23.1631C460.056 22.8643 459.801 22.6357 459.473 22.4775C459.145 22.3193 458.772 22.2402 458.356 22.2402ZM471.153 37.709H469.29L470.169 32.6992H472.665L471.153 37.709ZM484.231 23.9805C484.231 24.8652 484.381 25.7354 484.68 26.5908C484.984 27.4404 485.438 28.2051 486.042 28.8848C486.646 29.5645 487.378 30.0859 488.239 30.4492L487.026 32.207C486.106 31.8203 485.318 31.252 484.662 30.502C484.006 29.752 483.49 28.876 483.115 27.874C482.746 28.9639 482.228 29.9219 481.56 30.748C480.892 31.5684 480.101 32.1895 479.187 32.6113L477.903 30.8359C478.759 30.4551 479.488 29.9014 480.092 29.1748C480.701 28.4482 481.158 27.6338 481.463 26.7314C481.773 25.8232 481.929 24.9062 481.929 23.9805V22.9961H478.536V21.168H487.571V22.9961H484.231V23.9805ZM491.421 35.6172H489.153V19.6211H491.421V35.6172ZM506.485 21.625C506.485 22.4805 506.465 23.2363 506.424 23.8926C506.383 24.5488 506.277 25.2812 506.107 26.0898H508.226V27.9004H493.583V26.0898H503.849C504.007 25.3691 504.112 24.7041 504.165 24.0947C504.218 23.4795 504.247 22.8262 504.253 22.1348H495.376V20.3418H506.485V21.625ZM506.433 35.4414H495.323V29.5879H506.433V35.4414ZM497.521 33.6484H504.2V31.3457H497.521V33.6484ZM521.444 28.6211H513.763V20.9395H521.444V28.6211ZM515.978 26.8633H519.229V22.7324H515.978V26.8633ZM525.979 24.2266H528.142V26.0723H525.979V31.293H523.729V19.6211H525.979V24.2266ZM526.56 35.3359H515.608V30.1504H517.841V33.543H526.56V35.3359ZM543.47 27.6191H528.845V25.8613H543.47V27.6191ZM541.729 24.9824H530.673V19.9375H541.606V21.7305H532.905V23.2246H541.729V24.9824ZM541.659 32.752H532.747V33.7363H542.081V35.4766H530.55V31.1523H539.444V30.2559H530.532V28.5684H541.659V32.752ZM548.813 20.7461C549.528 20.7461 550.176 20.9365 550.756 21.3174C551.336 21.6924 551.811 22.2314 552.18 22.9346C552.555 23.6318 552.795 24.4551 552.9 25.4043H555.687V19.6211H557.901V35.6523H555.687V27.1973H552.927C552.851 28.2109 552.628 29.0928 552.259 29.8428C551.89 30.5869 551.409 31.1582 550.817 31.5566C550.226 31.9551 549.558 32.1543 548.813 32.1543C548.005 32.1543 547.284 31.9229 546.651 31.46C546.024 30.9912 545.535 30.3262 545.184 29.4648C544.832 28.5977 544.659 27.5898 544.665 26.4414C544.659 25.2988 544.832 24.2998 545.184 23.4443C545.535 22.583 546.024 21.918 546.651 21.4492C547.284 20.9805 548.005 20.7461 548.813 20.7461ZM548.813 22.7676C548.415 22.7676 548.063 22.9111 547.759 23.1982C547.454 23.4795 547.217 23.8984 547.047 24.4551C546.883 25.0059 546.804 25.668 546.81 26.4414C546.804 27.2207 546.883 27.8857 547.047 28.4365C547.217 28.9873 547.451 29.4062 547.75 29.6934C548.055 29.9746 548.409 30.1152 548.813 30.1152C549.218 30.1152 549.569 29.9746 549.868 29.6934C550.173 29.4121 550.407 28.9961 550.571 28.4453C550.735 27.8945 550.817 27.2266 550.817 26.4414C550.817 25.6621 550.735 24.9971 550.571 24.4463C550.407 23.8955 550.173 23.4795 549.868 23.1982C549.569 22.9111 549.218 22.7676 548.813 22.7676ZM562.946 22.8906H566.62V20.8867H568.87V28.252H565.935V30.6777C567.317 30.6074 568.53 30.502 569.573 30.3613L569.731 31.9961C568.255 32.2598 566.749 32.4297 565.214 32.5059C563.685 32.5762 561.968 32.6113 560.063 32.6113L559.765 30.7832H560.749L563.702 30.748V28.252H560.749V20.8867H562.946V22.8906ZM566.62 26.4941V24.5957H562.946V26.4941H566.62ZM572.667 26.0195H574.847V27.8828H572.667V35.6172H570.417V19.6211H572.667V26.0195ZM590.157 33.7539H575.515V31.9082H578.784V27.9971C578.151 27.6162 577.662 27.1475 577.316 26.5908C576.971 26.0283 576.798 25.3984 576.798 24.7012C576.798 23.8516 577.056 23.1016 577.571 22.4512C578.087 21.8008 578.799 21.2969 579.707 20.9395C580.621 20.5762 581.655 20.3945 582.81 20.3945C583.958 20.3945 584.986 20.5762 585.895 20.9395C586.809 21.2969 587.526 21.8008 588.048 22.4512C588.569 23.1016 588.833 23.8516 588.839 24.7012C588.833 25.3809 588.66 25.999 588.32 26.5557C587.986 27.1064 587.515 27.5723 586.905 27.9531V31.9082H590.157V33.7539ZM582.81 22.1699C582.048 22.1699 581.38 22.2695 580.806 22.4688C580.237 22.668 579.795 22.958 579.479 23.3389C579.168 23.7139 579.013 24.168 579.013 24.7012C579.013 25.2168 579.168 25.665 579.479 26.0459C579.795 26.4268 580.24 26.7197 580.814 26.9248C581.389 27.1299 582.054 27.2324 582.81 27.2324C583.56 27.2324 584.222 27.1299 584.796 26.9248C585.37 26.7197 585.815 26.4268 586.132 26.0459C586.454 25.665 586.618 25.2168 586.624 24.7012C586.618 24.1738 586.457 23.7197 586.141 23.3389C585.824 22.958 585.379 22.668 584.805 22.4688C584.23 22.2695 583.565 22.1699 582.81 22.1699ZM584.638 31.9082V28.8057C584.034 28.917 583.425 28.9727 582.81 28.9727C582.153 28.9727 581.55 28.917 580.999 28.8057V31.9082H584.638ZM594.481 30.1855H592.231L592.003 21.2734H594.71L594.481 30.1855ZM593.374 34.1582C593.104 34.1582 592.855 34.0908 592.627 33.9561C592.398 33.8213 592.217 33.6426 592.082 33.4199C591.953 33.1914 591.892 32.9453 591.897 32.6816C591.892 32.418 591.953 32.1748 592.082 31.9521C592.217 31.7295 592.398 31.5537 592.627 31.4248C592.855 31.29 593.104 31.2227 593.374 31.2227C593.626 31.2227 593.863 31.29 594.086 31.4248C594.314 31.5537 594.496 31.7295 594.631 31.9521C594.766 32.1748 594.833 32.418 594.833 32.6816C594.833 32.9453 594.766 33.1914 594.631 33.4199C594.496 33.6426 594.314 33.8213 594.086 33.9561C593.863 34.0908 593.626 34.1582 593.374 34.1582Z" fill="#0D0D0D"/>
<path d="M405.188 50.0781H407.281V51.125H405.188V54.75H403.969V46.375H405.188V50.0781ZM405.188 60.0781H396.422V55.5469H405.188V60.0781ZM397.625 59.0781H403.969V56.5312H397.625V59.0781ZM402.641 48.875H394.359V47.8594H397.891V46.2656H399.109V47.8594H402.641V48.875ZM398.5 49.5625C399.161 49.5625 399.742 49.6667 400.242 49.875C400.747 50.0781 401.138 50.3672 401.414 50.7422C401.695 51.112 401.839 51.5417 401.844 52.0312C401.839 52.5312 401.695 52.9688 401.414 53.3438C401.138 53.7188 400.747 54.0078 400.242 54.2109C399.742 54.4141 399.161 54.5156 398.5 54.5156C397.833 54.5156 397.245 54.4141 396.734 54.2109C396.229 54.0078 395.839 53.7188 395.562 53.3438C395.286 52.9688 395.151 52.5312 395.156 52.0312C395.151 51.5417 395.286 51.112 395.562 50.7422C395.839 50.3672 396.229 50.0781 396.734 49.875C397.245 49.6667 397.833 49.5625 398.5 49.5625ZM398.5 50.5156C398.068 50.5156 397.685 50.5807 397.352 50.7109C397.023 50.8359 396.768 51.013 396.586 51.2422C396.409 51.4714 396.323 51.7344 396.328 52.0312C396.323 52.3438 396.409 52.6172 396.586 52.8516C396.768 53.0807 397.023 53.2578 397.352 53.3828C397.68 53.5078 398.062 53.5729 398.5 53.5781C398.932 53.5729 399.312 53.5078 399.641 53.3828C399.969 53.2578 400.224 53.0807 400.406 52.8516C400.589 52.6172 400.682 52.3438 400.688 52.0312C400.682 51.7344 400.586 51.4714 400.398 51.2422C400.216 51.013 399.961 50.8359 399.633 50.7109C399.305 50.5807 398.927 50.5156 398.5 50.5156ZM411.609 48.0625C411.599 49.7865 411.419 51.3932 411.07 52.8828C410.721 54.3672 410.083 55.724 409.156 56.9531L408.188 56.3906C409 55.375 409.581 54.2604 409.93 53.0469C410.284 51.8333 410.487 50.5104 410.539 49.0781H408.469V48.0625H411.609ZM414.688 48.0625C414.682 48.7812 414.667 49.4401 414.641 50.0391C414.615 50.638 414.562 51.2396 414.484 51.8438H416.328V46.75H417.5V59.5625H416.328V52.8594H414.32C413.961 54.8438 413.276 56.5156 412.266 57.875L411.312 57.2969C411.911 56.5312 412.375 55.6875 412.703 54.7656C413.036 53.8438 413.266 52.9245 413.391 52.0078C413.516 51.0859 413.589 50.1094 413.609 49.0781H412.047V48.0625H414.688ZM420.109 60.2656H418.922V46.375H420.109V60.2656ZM432.844 49.7031H434.953V50.7188H432.844V54.0156H431.625V46.3281H432.844V49.7031ZM432.844 57.8125H425.219V59.1719H433.359V60.1094H424.016V56.9062H431.625V55.6562H423.984V54.7344H432.844V57.8125ZM430.297 48.625H422.016V47.6406H425.547V46.2344H426.766V47.6406H430.297V48.625ZM426.156 49.25C426.823 49.25 427.406 49.3438 427.906 49.5312C428.411 49.7135 428.802 49.9766 429.078 50.3203C429.354 50.6641 429.495 51.0677 429.5 51.5312C429.495 51.9948 429.354 52.3984 429.078 52.7422C428.802 53.0859 428.411 53.3516 427.906 53.5391C427.406 53.7214 426.823 53.8125 426.156 53.8125C425.484 53.8125 424.893 53.7214 424.383 53.5391C423.878 53.3516 423.487 53.0859 423.211 52.7422C422.94 52.3984 422.807 51.9948 422.812 51.5312C422.807 51.0677 422.94 50.6641 423.211 50.3203C423.487 49.9766 423.878 49.7135 424.383 49.5312C424.893 49.3438 425.484 49.25 426.156 49.25ZM426.156 50.1562C425.724 50.1562 425.341 50.2135 425.008 50.3281C424.68 50.4427 424.424 50.6042 424.242 50.8125C424.065 51.0208 423.979 51.2604 423.984 51.5312C423.979 51.8073 424.065 52.0495 424.242 52.2578C424.424 52.4609 424.68 52.6172 425.008 52.7266C425.336 52.8359 425.719 52.8906 426.156 52.8906C426.818 52.8906 427.346 52.7708 427.742 52.5312C428.138 52.2865 428.339 51.9531 428.344 51.5312C428.339 51.2552 428.245 51.0156 428.062 50.8125C427.88 50.6042 427.625 50.4427 427.297 50.3281C426.969 50.2135 426.589 50.1562 426.156 50.1562ZM451.734 60.2656H450.547V46.375H451.734V60.2656ZM448.938 59.5625H447.766V52.8125H445.977C445.935 53.7083 445.786 54.487 445.531 55.1484C445.276 55.8047 444.93 56.3125 444.492 56.6719C444.055 57.026 443.552 57.2031 442.984 57.2031C442.385 57.2031 441.859 57.0078 441.406 56.6172C440.958 56.2214 440.612 55.6589 440.367 54.9297C440.122 54.2005 440 53.349 440 52.375C440 51.401 440.122 50.5495 440.367 49.8203C440.612 49.0911 440.958 48.5312 441.406 48.1406C441.859 47.7448 442.385 47.5469 442.984 47.5469C443.542 47.5469 444.036 47.7188 444.469 48.0625C444.901 48.4062 445.245 48.8984 445.5 49.5391C445.76 50.1797 445.917 50.9323 445.969 51.7969H447.766V46.6719H448.938V59.5625ZM442.984 48.7031C442.609 48.7031 442.284 48.8516 442.008 49.1484C441.732 49.4453 441.518 49.8724 441.367 50.4297C441.221 50.9818 441.151 51.6302 441.156 52.375C441.151 53.1198 441.221 53.7682 441.367 54.3203C441.518 54.8724 441.732 55.2969 442.008 55.5938C442.289 55.8906 442.615 56.0365 442.984 56.0312C443.354 56.0365 443.677 55.8906 443.953 55.5938C444.234 55.2969 444.451 54.8724 444.602 54.3203C444.753 53.7682 444.828 53.1198 444.828 52.375C444.828 51.625 444.753 50.974 444.602 50.4219C444.451 49.8698 444.237 49.4453 443.961 49.1484C443.685 48.8516 443.359 48.7031 442.984 48.7031ZM464.609 49.25C464.609 50.0469 464.599 50.7422 464.578 51.3359C464.562 51.9297 464.518 52.6224 464.445 53.4141C464.372 54.2057 464.255 55.0677 464.094 56L462.844 55.875C463.016 54.9948 463.143 54.1667 463.227 53.3906C463.31 52.6094 463.359 51.9219 463.375 51.3281C463.396 50.7292 463.406 50.0365 463.406 49.25V48.875H455.031V47.8594H464.609V49.25ZM466.312 58.2188H453.656V57.2031H466.312V58.2188ZM480.203 58.4219H467.484V57.3906H480.203V58.4219ZM474.453 49.4375C474.453 50.1458 474.708 50.8203 475.219 51.4609C475.729 52.1016 476.383 52.6406 477.18 53.0781C477.977 53.5156 478.781 53.8021 479.594 53.9375L479.094 54.9062C478.37 54.7656 477.659 54.526 476.961 54.1875C476.268 53.8438 475.646 53.4193 475.094 52.9141C474.542 52.4036 474.122 51.8385 473.836 51.2188C473.549 51.8385 473.13 52.4089 472.578 52.9297C472.031 53.4453 471.411 53.8802 470.719 54.2344C470.031 54.5833 469.333 54.8281 468.625 54.9688L468.109 53.9844C468.906 53.8438 469.698 53.5521 470.484 53.1094C471.276 52.6615 471.924 52.1146 472.43 51.4688C472.935 50.8177 473.188 50.1406 473.188 49.4375V48.7969H468.531V47.7812H479.109V48.7969H474.453V49.4375ZM493.984 53.2031H481.312V52.2188H493.984V53.2031ZM492.469 51.0781H483V46.8594H492.328V47.8438H484.234V50.0781H492.469V51.0781ZM492.344 57.6719H484.094V59.1094H492.766V60.1094H482.875V56.75H491.141V55.4062H482.844V54.4531H492.344V57.6719ZM501.469 46.625C502.5 46.625 503.383 46.7188 504.117 46.9062C504.852 47.0885 505.411 47.3594 505.797 47.7188C506.182 48.0729 506.375 48.5052 506.375 49.0156C506.375 49.7969 505.948 50.3958 505.094 50.8125C504.24 51.2292 503.031 51.4427 501.469 51.4531C500.438 51.4479 499.552 51.3516 498.812 51.1641C498.078 50.9766 497.516 50.7031 497.125 50.3438C496.74 49.9792 496.547 49.5365 496.547 49.0156C496.547 48.5052 496.74 48.0729 497.125 47.7188C497.516 47.3594 498.078 47.0885 498.812 46.9062C499.552 46.7188 500.438 46.625 501.469 46.625ZM501.469 47.5469C500.703 47.5469 500.047 47.6068 499.5 47.7266C498.953 47.8411 498.536 48.0104 498.25 48.2344C497.964 48.4531 497.823 48.7135 497.828 49.0156C497.823 49.4948 498.138 49.8646 498.773 50.125C499.409 50.3854 500.307 50.5156 501.469 50.5156C502.625 50.5156 503.523 50.3854 504.164 50.125C504.805 49.8646 505.125 49.4948 505.125 49.0156C505.125 48.7135 504.979 48.4531 504.688 48.2344C504.396 48.0156 503.977 47.8464 503.43 47.7266C502.883 47.6068 502.229 47.5469 501.469 47.5469ZM507.797 53.3906H495.141V52.3906H507.797V53.3906ZM506.172 57.7031H497.922V59.1406H506.594V60.1094H496.703V56.7969H504.969V55.5312H496.672V54.5938H506.172V57.7031ZM520 54.0312H513.578V47.6406H520V54.0312ZM514.781 53.0469H518.812V48.6406H514.781V53.0469ZM523.844 50.6094H525.938V51.6406H523.844V56.5625H522.625V46.375H523.844V50.6094ZM524.484 59.9688H515.156V55.5938H516.359V58.9375H524.484V59.9688ZM539.812 52.9531H537.562V60.2656H536.344V46.375H537.562V51.9219H539.812V52.9531ZM528.609 55.7031C529.698 55.6979 530.763 55.6458 531.805 55.5469C532.846 55.4479 533.911 55.2865 535 55.0625L535.156 56.1094C534.026 56.3385 532.919 56.5 531.836 56.5938C530.758 56.6875 529.646 56.7344 528.5 56.7344H527.391V47.75H528.609V55.7031ZM543.547 47.9375H550.422V46.6094H551.641V51.1719H547.547V52.5469H553.297V53.5469H540.641V52.5469H546.344V51.1719H542.328V46.6094H543.547V47.9375ZM550.422 50.2188V48.875H543.547V50.2188H550.422ZM551.672 57.7812H543.422V59.1406H552.094V60.1094H542.203V56.875H550.469V55.6406H542.172V54.7031H551.672V57.7812ZM565.469 52.1094H567.578V53.1406H565.469V60.2656H564.234V46.375H565.469V52.1094ZM558.688 47.8906C558.677 49.7031 558.422 51.3828 557.922 52.9297C557.427 54.4714 556.589 55.8698 555.406 57.125L554.422 56.4219C555.427 55.3958 556.174 54.2578 556.664 53.0078C557.154 51.7526 557.44 50.3906 557.523 48.9219H554.859V47.8906H558.688ZM562.5 47.8906C562.49 49.8698 562.266 51.7135 561.828 53.4219C561.391 55.125 560.583 56.6667 559.406 58.0469L558.406 57.3594C559.411 56.224 560.135 54.9427 560.578 53.5156C561.026 52.0885 561.281 50.5573 561.344 48.9219H559.125V47.8906H562.5ZM581.016 58.4844H568.297V57.4531H571.453V53.7031C570.849 53.3906 570.38 52.9896 570.047 52.5C569.714 52.0052 569.547 51.4479 569.547 50.8281C569.547 50.1198 569.763 49.4974 570.195 48.9609C570.628 48.4193 571.227 48 571.992 47.7031C572.763 47.4062 573.641 47.2552 574.625 47.25C575.609 47.2552 576.484 47.4062 577.25 47.7031C578.021 48 578.622 48.4193 579.055 48.9609C579.487 49.4974 579.703 50.1198 579.703 50.8281C579.703 51.4375 579.542 51.987 579.219 52.4766C578.896 52.9609 578.443 53.3594 577.859 53.6719V57.4531H581.016V58.4844ZM574.625 48.2656C573.87 48.2604 573.198 48.3646 572.609 48.5781C572.021 48.7917 571.56 49.0938 571.227 49.4844C570.898 49.8698 570.734 50.3177 570.734 50.8281C570.734 51.3385 570.898 51.7917 571.227 52.1875C571.56 52.5781 572.021 52.8828 572.609 53.1016C573.198 53.3151 573.87 53.4219 574.625 53.4219C575.375 53.4219 576.044 53.3125 576.633 53.0938C577.221 52.875 577.682 52.5703 578.016 52.1797C578.349 51.7891 578.516 51.3385 578.516 50.8281C578.516 50.3177 578.349 49.8698 578.016 49.4844C577.682 49.0938 577.221 48.7917 576.633 48.5781C576.044 48.3646 575.375 48.2604 574.625 48.2656ZM576.625 57.4531V54.1484C576.005 54.3099 575.339 54.3906 574.625 54.3906C573.906 54.3906 573.25 54.3125 572.656 54.1562V57.4531H576.625ZM584.344 55.7344C584.349 55.0625 584.417 54.5182 584.547 54.1016C584.682 53.6849 584.87 53.349 585.109 53.0938C585.349 52.8385 585.672 52.5885 586.078 52.3438C586.422 52.1354 586.698 51.8724 586.906 51.5547C587.115 51.2318 587.219 50.8646 587.219 50.4531C587.219 50.1094 587.135 49.8073 586.969 49.5469C586.807 49.2812 586.583 49.0781 586.297 48.9375C586.016 48.7917 585.703 48.7188 585.359 48.7188C585.047 48.7188 584.753 48.7839 584.477 48.9141C584.206 49.0391 583.979 49.2396 583.797 49.5156C583.62 49.7865 583.516 50.125 583.484 50.5312H582.062C582.089 49.9167 582.25 49.3828 582.547 48.9297C582.844 48.4766 583.237 48.1302 583.727 47.8906C584.216 47.651 584.76 47.5312 585.359 47.5312C586 47.5312 586.565 47.6615 587.055 47.9219C587.544 48.1771 587.922 48.5312 588.188 48.9844C588.458 49.4375 588.594 49.9479 588.594 50.5156C588.594 51.6667 588.078 52.5573 587.047 53.1875C586.714 53.3906 586.451 53.6016 586.258 53.8203C586.07 54.0391 585.93 54.2995 585.836 54.6016C585.747 54.9036 585.698 55.2812 585.688 55.7344V55.8125H584.344V55.7344ZM585.062 59.0938C584.88 59.0938 584.711 59.0495 584.555 58.9609C584.404 58.8672 584.281 58.7422 584.188 58.5859C584.099 58.4297 584.057 58.2604 584.062 58.0781C584.057 57.901 584.099 57.737 584.188 57.5859C584.281 57.4297 584.404 57.3073 584.555 57.2188C584.711 57.125 584.88 57.0781 585.062 57.0781C585.24 57.0781 585.404 57.125 585.555 57.2188C585.711 57.3073 585.833 57.4297 585.922 57.5859C586.016 57.737 586.062 57.901 586.062 58.0781C586.062 58.2604 586.016 58.4297 585.922 58.5859C585.833 58.7422 585.711 58.8672 585.555 58.9609C585.404 59.0495 585.24 59.0938 585.062 59.0938Z" fill="#737373"/>
<path fill-rule="evenodd" clip-rule="evenodd" d="M906.975 74.0012C907.113 74.0012 907.225 74.1131 907.225 74.2512V76.0726L908.759 77.0009C908.877 77.0723 908.915 77.226 908.843 77.3442C908.772 77.4623 908.618 77.5001 908.5 77.4286L907.225 76.657V78.2512C907.225 78.3893 907.113 78.5012 906.975 78.5012C906.837 78.5012 906.725 78.3893 906.725 78.2512V76.6068L905.388 77.4901C905.273 77.5663 905.118 77.5346 905.041 77.4193C904.965 77.3041 904.997 77.1491 905.112 77.073L906.725 76.0076V74.2512C906.725 74.1131 906.837 74.0012 906.975 74.0012Z" fill="#262626"/>
<path fill-rule="evenodd" clip-rule="evenodd" d="M914.234 74.28C914.097 74.2973 914 74.4224 914.017 74.5594L914.203 76.0306L912.766 76.7386C912.642 76.7996 912.591 76.9495 912.652 77.0733C912.713 77.1972 912.863 77.2482 912.986 77.1872L914.167 76.6056L913.934 77.9136C913.909 78.0495 914 78.1794 914.136 78.2037C914.272 78.2279 914.402 78.1374 914.426 78.0015L914.681 76.5761L915.685 77.3422C915.795 77.4259 915.952 77.4048 916.035 77.295C916.119 77.1852 916.098 77.0283 915.988 76.9446L914.699 75.9611L914.513 74.4967C914.496 74.3597 914.371 74.2627 914.234 74.28Z" fill="#262626"/>
<path fill-rule="evenodd" clip-rule="evenodd" d="M879.53 74.9985C879.668 74.9985 879.78 75.1105 879.78 75.2485V77.1581L881.001 78.6257C881.09 78.7318 881.075 78.8895 880.969 78.9778C880.863 79.0661 880.705 79.0517 880.617 78.9456L879.78 77.9396V79.2485C879.78 79.3866 879.668 79.4985 879.53 79.4985C879.391 79.4985 879.28 79.3866 879.28 79.2485V77.9396L878.442 78.9456C878.354 79.0517 878.196 79.0661 878.09 78.9778C877.984 78.8895 877.97 78.7318 878.058 78.6257L879.28 77.1581V75.2485C879.28 75.1105 879.391 74.9985 879.53 74.9985Z" fill="#262626"/>
<path fill-rule="evenodd" clip-rule="evenodd" d="M889.478 74.3939C889.611 74.3583 889.748 74.4377 889.784 74.5711L890.275 76.4169L891.834 77.5208C891.947 77.6006 891.974 77.7567 891.894 77.8693C891.814 77.982 891.658 78.0087 891.545 77.9289L890.477 77.1721L890.813 78.4362C890.849 78.5696 890.77 78.7066 890.636 78.7421C890.503 78.7777 890.366 78.6984 890.33 78.5649L889.994 77.3017L889.444 78.4889C889.386 78.6141 889.237 78.6687 889.112 78.6106C888.987 78.5526 888.932 78.404 888.99 78.2787L889.793 76.5466L889.3 74.6998C889.265 74.5664 889.344 74.4294 889.478 74.3939Z" fill="#262626"/>
<path fill-rule="evenodd" clip-rule="evenodd" d="M931.939 73.4454C932.073 73.4766 932.157 73.6109 932.126 73.7454L931.715 75.5198L933 76.7701C933.099 76.8664 933.101 77.0247 933.005 77.1236C932.909 77.2226 932.751 77.2248 932.652 77.1285L931.583 76.0892L931.224 77.6423C931.193 77.7768 931.058 77.8606 930.924 77.8295C930.789 77.7984 930.706 77.6641 930.737 77.5296L931.108 75.9275L929.606 76.4865C929.476 76.5347 929.332 76.4688 929.284 76.3394C929.236 76.21 929.302 76.0661 929.431 76.0179L931.243 75.3437L931.639 73.6326C931.67 73.4981 931.804 73.4143 931.939 73.4454Z" fill="#262626"/>
<path fill-rule="evenodd" clip-rule="evenodd" d="M939.939 74.4454C940.073 74.4766 940.157 74.6109 940.126 74.7454L939.715 76.5198L941 77.7701C941.099 77.8664 941.101 78.0247 941.005 78.1236C940.909 78.2226 940.751 78.2248 940.652 78.1285L939.583 77.0892L939.224 78.6423C939.193 78.7768 939.058 78.8606 938.924 78.8295C938.789 78.7984 938.706 78.6641 938.737 78.5296L939.108 76.9275L937.606 77.4865C937.476 77.5347 937.332 77.4688 937.284 77.3394C937.236 77.21 937.302 77.0661 937.431 77.0179L939.243 76.3437L939.639 74.6326C939.67 74.4981 939.804 74.4143 939.939 74.4454Z" fill="#262626"/>
<path d="M951.618 60.9726C951.618 69.0297 945.086 75.5613 937.029 75.5613C928.972 75.5613 922.441 69.0297 922.441 60.9726C922.441 52.9155 928.972 46.3839 937.029 46.3839C938.952 46.3839 940.316 47.056 941.54 48.0576C942.158 48.5635 942.74 49.1527 943.343 49.7887C943.48 49.9336 943.619 50.0812 943.759 50.2306C944.23 50.732 944.721 51.2539 945.246 51.7651C945.723 52.2293 946.215 52.68 946.707 53.1296C947.692 54.0313 948.673 54.9285 949.513 55.9213C950.753 57.3879 951.618 58.9934 951.618 60.9726Z" fill="#FDB800" stroke="#262626" stroke-width="0.767826"/>
<path fill-rule="evenodd" clip-rule="evenodd" d="M943.116 60.2811C942.994 60.2172 942.843 60.2647 942.779 60.3871C942.715 60.5096 942.762 60.6606 942.885 60.7244L943.03 60.7997C943.474 61.0301 943.98 61.2925 944.352 61.5822C944.559 61.7432 944.701 61.8956 944.772 62.0345C944.836 62.1601 944.841 62.2681 944.78 62.3851C944.78 62.3848 944.78 62.3849 944.779 62.3856C944.777 62.3888 944.766 62.4055 944.737 62.4347C944.706 62.4665 944.663 62.5052 944.608 62.5469C944.497 62.6305 944.349 62.7201 944.176 62.7894C943.833 62.9264 943.416 62.9766 943.003 62.7754C942.913 62.7228 942.797 62.7298 942.714 62.801C942.614 62.8863 942.598 63.0329 942.673 63.1373C942.679 63.1454 942.685 63.1532 942.692 63.1607C943.109 63.6504 943.349 64.1576 943.421 64.5862C943.493 65.0189 943.391 65.3357 943.182 65.515C943.101 65.5846 942.946 65.6354 942.702 65.6281C942.464 65.621 942.175 65.5592 941.867 65.4474C941.248 65.2229 940.601 64.8151 940.191 64.336C940.101 64.2311 939.944 64.2188 939.839 64.3086C939.792 64.3482 939.764 64.401 939.755 64.4567C939.749 64.4879 939.75 64.5206 939.757 64.5535C939.904 65.2292 939.868 65.8587 939.665 66.3397C939.467 66.8123 939.107 67.1476 938.573 67.2639C938.085 67.3701 937.592 67.1125 937.155 66.5903C936.723 66.0736 936.393 65.3481 936.245 64.6698C936.216 64.5349 936.083 64.4493 935.948 64.4787C935.813 64.5081 935.727 64.6412 935.757 64.7761C935.919 65.5213 936.28 66.3236 936.772 66.9112C937.259 67.4934 937.924 67.9168 938.679 67.7524C939.388 67.5982 939.871 67.1412 940.126 66.5334C940.297 66.1277 940.366 65.658 940.342 65.1649C940.753 65.489 941.235 65.7499 941.696 65.9174C942.038 66.0415 942.381 66.1188 942.687 66.1279C942.987 66.1369 943.289 66.081 943.507 65.8949C943.895 65.5628 944.003 65.041 943.914 64.5039C943.855 64.1514 943.71 63.7767 943.486 63.4071C943.808 63.4237 944.109 63.3546 944.361 63.2536C944.579 63.1666 944.767 63.054 944.91 62.9454C945.044 62.844 945.166 62.7254 945.223 62.6163C945.37 62.3351 945.344 62.0548 945.217 61.8069C945.097 61.5722 944.888 61.3659 944.659 61.1876C944.248 60.8675 943.699 60.583 943.262 60.3566L943.116 60.2811Z" fill="#262626"/>
<ellipse cx="926.75" cy="57.9982" rx="0.74863" ry="0.998174" fill="black"/>
<ellipse cx="932.24" cy="57.9982" rx="0.74863" ry="0.998174" fill="black"/>
<path d="M933.955 59.9943L933.103 60.7154" stroke="#F77E7E" stroke-width="0.998174" stroke-linecap="round"/>
<path d="M935.502 60.1037L934.65 60.8248" stroke="#F77E7E" stroke-width="0.998174" stroke-linecap="round"/>
<path d="M927.001 60.5625L927.855 59.7088C928.245 59.3183 928.878 59.3183 929.269 59.7088L930.123 60.5625L929.976 60.7091C929.195 61.4901 927.929 61.4901 927.148 60.7091L927.001 60.5625Z" fill="#EF5533"/>
<path d="M925.048 60.9726C925.048 69.0297 918.516 75.5613 910.459 75.5613C902.402 75.5613 895.87 69.0297 895.87 60.9726C895.87 52.9155 902.402 46.3839 910.459 46.3839C912.382 46.3839 913.745 47.056 914.97 48.0576C915.588 48.5635 916.169 49.1527 916.772 49.7887C916.91 49.9336 917.048 50.0812 917.189 50.2306C917.66 50.7319 918.15 51.2539 918.676 51.7651C919.153 52.2293 919.645 52.68 920.137 53.1296C921.122 54.0313 922.103 54.9285 922.942 55.9213C924.183 57.3879 925.048 58.9934 925.048 60.9726Z" fill="#FDB800" stroke="#262626" stroke-width="0.767826"/>
<path fill-rule="evenodd" clip-rule="evenodd" d="M916.114 60.2823C915.992 60.2184 915.841 60.2659 915.777 60.3884C915.713 60.5108 915.761 60.6618 915.883 60.7256L916.028 60.8009C916.472 61.0313 916.978 61.2937 917.35 61.5834C917.557 61.7444 917.699 61.8969 917.77 62.0357C917.834 62.1614 917.839 62.2693 917.778 62.3864C917.778 62.386 917.778 62.3861 917.777 62.3868C917.775 62.3901 917.764 62.4068 917.735 62.4359C917.704 62.4677 917.661 62.5064 917.606 62.5481C917.496 62.6317 917.347 62.7213 917.174 62.7906C916.831 62.9276 916.414 62.9778 916.001 62.7766C915.911 62.724 915.795 62.731 915.712 62.8022C915.612 62.8875 915.596 63.0341 915.671 63.1385C915.677 63.1467 915.684 63.1545 915.69 63.1619C916.108 63.6517 916.347 64.1588 916.419 64.5874C916.491 65.0201 916.389 65.3369 916.18 65.5162C916.099 65.5858 915.945 65.6367 915.7 65.6294C915.462 65.6223 915.173 65.5604 914.865 65.4486C914.246 65.2241 913.599 64.8163 913.189 64.3372C913.1 64.2323 912.942 64.22 912.837 64.3098C912.791 64.3494 912.762 64.4022 912.753 64.4579C912.747 64.4891 912.748 64.5218 912.755 64.5547C912.902 65.2304 912.866 65.8599 912.663 66.3409C912.465 66.8135 912.105 67.1488 911.571 67.2651C911.083 67.3713 910.59 67.1137 910.153 66.5916C909.721 66.0748 909.391 65.3493 909.243 64.671C909.214 64.5361 909.081 64.4506 908.946 64.4799C908.811 64.5093 908.725 64.6424 908.755 64.7774C908.917 65.5225 909.278 66.3249 909.77 66.9125C910.257 67.4946 910.922 67.918 911.677 67.7536C912.386 67.5994 912.869 67.1424 913.124 66.5346C913.295 66.1289 913.364 65.6592 913.34 65.1661C913.751 65.4903 914.233 65.7511 914.694 65.9186C915.036 66.0427 915.379 66.12 915.685 66.1291C915.985 66.1381 916.288 66.0823 916.505 65.8961C916.893 65.564 917.001 65.0422 916.912 64.5051C916.853 64.1526 916.708 63.7779 916.485 63.4084C916.806 63.425 917.107 63.3558 917.359 63.2549C917.577 63.1678 917.765 63.0552 917.908 62.9466C918.042 62.8452 918.164 62.7267 918.221 62.6176C918.368 62.3363 918.342 62.056 918.215 61.8082C918.096 61.5735 917.886 61.3671 917.657 61.1889C917.246 60.8687 916.697 60.5842 916.26 60.3578L916.114 60.2823Z" fill="#262626"/>
<ellipse cx="899.748" cy="57.9982" rx="0.74863" ry="0.998174" fill="black"/>
<ellipse cx="905.236" cy="57.9982" rx="0.74863" ry="0.998174" fill="black"/>
<path d="M899.999 60.5586L900.853 59.7049C901.243 59.3144 901.876 59.3144 902.267 59.7049L903.121 60.5586L902.974 60.7052C902.193 61.4862 900.927 61.4862 900.146 60.7052L899.999 60.5586Z" fill="#EF5533"/>
<path d="M898.999 55L900.999 56.5" stroke="black" stroke-width="0.5" stroke-linecap="round"/>
<path d="M905.999 55L903.999 56.5" stroke="black" stroke-width="0.5" stroke-linecap="round"/>
<path d="M898.561 61.9726C898.561 70.0297 892.03 76.5613 883.973 76.5613C875.915 76.5613 869.384 70.0297 869.384 61.9726C869.384 53.9155 875.915 47.3839 883.973 47.3839C885.895 47.3839 887.259 48.056 888.483 49.0576C889.101 49.5635 889.683 50.1527 890.286 50.7887C890.423 50.9336 890.562 51.0812 890.702 51.2306C891.174 51.7319 891.664 52.2539 892.189 52.7651C892.666 53.2293 893.159 53.68 893.65 54.1296C894.636 55.0313 895.616 55.9285 896.456 56.9213C897.697 58.3879 898.561 59.9934 898.561 61.9726Z" fill="#FDB800" stroke="#262626" stroke-width="0.767826"/>
<path fill-rule="evenodd" clip-rule="evenodd" d="M889.115 60.2823C888.993 60.2184 888.842 60.2659 888.778 60.3884C888.714 60.5108 888.761 60.6618 888.884 60.7256L889.029 60.8009C889.473 61.0313 889.979 61.2937 890.351 61.5834C890.558 61.7444 890.7 61.8969 890.771 62.0357C890.835 62.1614 890.84 62.2693 890.779 62.3864C890.779 62.386 890.779 62.3861 890.778 62.3868C890.776 62.3901 890.765 62.4068 890.736 62.4359C890.705 62.4677 890.662 62.5064 890.607 62.5481C890.497 62.6317 890.348 62.7213 890.175 62.7906C889.832 62.9276 889.415 62.9778 889.002 62.7766C888.912 62.724 888.796 62.731 888.713 62.8022C888.613 62.8875 888.597 63.0341 888.672 63.1385C888.678 63.1467 888.684 63.1545 888.691 63.1619C889.109 63.6517 889.348 64.1588 889.42 64.5874C889.492 65.0201 889.39 65.3369 889.181 65.5162C889.1 65.5858 888.946 65.6367 888.701 65.6294C888.463 65.6223 888.174 65.5604 887.866 65.4486C887.247 65.2241 886.6 64.8163 886.19 64.3372C886.1 64.2323 885.943 64.22 885.838 64.3098C885.791 64.3494 885.763 64.4022 885.754 64.4579C885.748 64.4891 885.749 64.5218 885.756 64.5547C885.903 65.2304 885.867 65.8599 885.664 66.3409C885.466 66.8135 885.106 67.1488 884.572 67.2651C884.084 67.3713 883.591 67.1137 883.154 66.5916C882.722 66.0748 882.392 65.3493 882.244 64.671C882.215 64.5361 882.082 64.4506 881.947 64.4799C881.812 64.5093 881.726 64.6424 881.756 64.7774C881.918 65.5225 882.279 66.3249 882.771 66.9125C883.258 67.4946 883.923 67.918 884.678 67.7536C885.387 67.5994 885.87 67.1424 886.125 66.5346C886.296 66.1289 886.365 65.6592 886.341 65.1661C886.752 65.4903 887.234 65.7511 887.695 65.9186C888.037 66.0427 888.38 66.12 888.686 66.1291C888.986 66.1381 889.288 66.0823 889.506 65.8961C889.894 65.564 890.002 65.0422 889.913 64.5051C889.854 64.1526 889.709 63.7779 889.486 63.4084C889.807 63.425 890.108 63.3558 890.36 63.2549C890.578 63.1678 890.766 63.0552 890.909 62.9466C891.043 62.8452 891.165 62.7267 891.222 62.6176C891.369 62.3363 891.343 62.056 891.216 61.8082C891.097 61.5735 890.887 61.3671 890.658 61.1889C890.247 60.8687 889.698 60.5842 889.261 60.3578L889.115 60.2823Z" fill="#262626"/>
<ellipse cx="872.749" cy="57.9982" rx="0.74863" ry="0.998174" fill="black"/>
<ellipse cx="878.239" cy="57.9982" rx="0.74863" ry="0.998174" fill="black"/>
<path d="M879.954 59.9943L879.102 60.7154" stroke="#F77E7E" stroke-width="0.998174" stroke-linecap="round"/>
<path d="M881.501 60.1037L880.649 60.8248" stroke="#F77E7E" stroke-width="0.998174" stroke-linecap="round"/>
<path d="M873 60.5625L873.854 59.7088C874.244 59.3183 874.877 59.3183 875.268 59.7088L876.122 60.5625L875.975 60.7091C875.194 61.4901 873.928 61.4901 873.147 60.7091L873 60.5625Z" fill="#EF5533"/>
</svg>
