<svg width="96" height="24" viewBox="0 0 96 24" fill="none" xmlns="http://www.w3.org/2000/svg">
<path d="M18.4226 3.53906C17.5266 3.53906 16.7998 4.26577 16.7998 5.16182V10.0301H14.5985C13.639 10.0301 12.8594 10.8097 12.8594 11.7692C12.8594 12.7288 13.639 13.5084 14.5985 13.5084H16.7998V19.0716C16.7998 19.9677 17.5266 20.6944 18.4226 20.6944C19.3186 20.6944 20.0454 19.9677 20.0454 19.0716V5.16182C20.0454 4.26577 19.3186 3.53906 18.4226 3.53906Z" fill="#262626"/>
<path d="M22.1325 3.53906C21.2365 3.53906 20.5098 4.26577 20.5098 5.16182V19.0681C20.5098 19.9642 21.2365 20.6909 22.1325 20.6909C23.0286 20.6909 23.7553 19.9642 23.7553 19.0681V5.16182C23.7553 4.26577 23.0286 3.53906 22.1325 3.53906Z" fill="#262626"/>
<path d="M44.381 10.959C43.3579 10.959 42.5254 11.7881 42.5254 12.8146C42.5254 13.8412 43.3544 14.6702 44.381 14.6702H57.1302C58.1532 14.6702 58.9858 13.8412 58.9858 12.8146C58.9858 11.7881 58.1567 10.959 57.1302 10.959H56.4352V7.4807H57.1302C58.1532 7.4807 58.9858 6.65168 58.9858 5.62511C58.9858 4.59855 58.1567 3.76953 57.1302 3.76953H44.381C43.3579 3.76953 42.5254 4.59855 42.5254 5.62511C42.5254 6.65168 43.3544 7.4807 44.381 7.4807H45.0759V10.959H44.381ZM49.0164 7.4807H52.4947V10.959H49.0164V7.4807Z" fill="#262626"/>
<path d="M57.9423 16.2891H44.036C43.0765 16.2891 42.2969 17.0687 42.2969 18.0282C42.2969 18.9878 43.0765 19.7674 44.036 19.7674H57.9423C58.9019 19.7674 59.6815 18.9878 59.6815 18.0282C59.6815 17.0687 58.9019 16.2891 57.9423 16.2891Z" fill="#262626"/>
<path d="M75.5552 17.2146H65.4729V16.8654C65.4729 15.6483 64.4887 14.6641 63.2716 14.6641C62.0545 14.6641 61.0703 15.6483 61.0703 16.8654V18.026C61.0703 18.153 61.0844 18.28 61.1056 18.4035C61.0844 18.5058 61.0703 18.6116 61.0703 18.7209C61.0703 19.5535 61.7441 20.2273 62.5767 20.2273H75.5552C76.3877 20.2273 77.0615 19.5535 77.0615 18.7209C77.0615 17.8884 76.3877 17.2146 75.5552 17.2146Z" fill="#262626"/>
<path d="M68.1407 14.4315C68.9732 14.4315 69.647 13.7577 69.647 12.9252C69.647 12.0926 68.9732 11.4188 68.1407 11.4188H64.0838V10.7239H67.3293C67.6786 10.7239 67.9961 10.5933 68.243 10.3817C68.5605 10.7345 69.0191 10.9567 69.5306 10.9567H70.1092V14.435C70.1092 15.3311 70.8359 16.0578 71.7319 16.0578C72.628 16.0578 73.3547 15.3311 73.3547 14.435V4.93135C73.3547 4.03531 72.628 3.30859 71.7319 3.30859C70.8359 3.30859 70.1092 4.03531 70.1092 4.93135V7.48189H69.5306C69.2378 7.48189 68.9627 7.55598 68.7192 7.68297V5.50989C68.7192 4.55035 67.9396 3.77073 66.9801 3.77073H62.3446C61.3851 3.77073 60.6055 4.55035 60.6055 5.50989C60.6055 6.46944 61.3851 7.24906 62.3446 7.24906H65.2409V7.94403H61.9954C61.2263 7.94403 60.6055 8.5649 60.6055 9.33395C60.6055 9.39039 60.609 9.44331 60.6161 9.49622C60.609 9.5562 60.6055 9.61969 60.6055 9.68319V12.6959C60.6055 12.7347 60.6055 12.7735 60.6125 12.8123C60.6125 12.8511 60.6055 12.8899 60.6055 12.9287C60.6055 13.7612 61.2793 14.435 62.1118 14.435H68.1372L68.1407 14.4315Z" fill="#262626"/>
<path d="M75.4372 3.30859C74.5412 3.30859 73.8145 4.03531 73.8145 4.93135V14.435C73.8145 15.3311 74.5412 16.0578 75.4372 16.0578C76.3333 16.0578 77.06 15.3311 77.06 14.435V4.93135C77.06 4.03531 76.3333 3.30859 75.4372 3.30859Z" fill="#262626"/>
<path d="M27.8099 7.71429H36.0365V13.1611C36.0365 14.2476 36.9185 15.1296 38.005 15.1296C39.0916 15.1296 39.9735 14.2476 39.9735 13.1611V5.74581C39.9735 4.65928 39.0916 3.77734 38.005 3.77734H27.8064C26.7198 3.77734 25.8379 4.65928 25.8379 5.74581C25.8379 6.83235 26.7198 7.71429 27.8064 7.71429H27.8099Z" fill="#262626"/>
<path d="M39.8623 16.2891H25.956C24.9964 16.2891 24.2168 17.0687 24.2168 18.0282C24.2168 18.9878 24.9964 19.7674 25.956 19.7674H39.8623C40.8218 19.7674 41.6014 18.9878 41.6014 18.0282C41.6014 17.0687 40.8218 16.2891 39.8623 16.2891Z" fill="#262626"/>
<path d="M93.4013 16.2891H79.495C78.5355 16.2891 77.7559 17.0687 77.7559 18.0282C77.7559 18.9878 78.5355 19.7674 79.495 19.7674H93.4013C94.3609 19.7674 95.1405 18.9878 95.1405 18.0282C95.1405 17.0687 94.3609 16.2891 93.4013 16.2891Z" fill="#262626"/>
<path d="M80.7736 7.48032H84.4812V8.4575L80.2091 11.9852C79.426 12.6308 79.3166 13.7914 79.9622 14.5746C80.6077 15.3577 81.7684 15.4671 82.5515 14.8215L86.5414 11.5266L90.3619 14.571C91.1556 15.206 92.3127 15.0755 92.9477 14.2782C93.5827 13.4845 93.4522 12.3274 92.6549 11.6924L88.651 8.49983V7.47679H92.1293C93.1523 7.47679 93.9849 6.64778 93.9849 5.62121C93.9849 4.59464 93.1559 3.76562 92.1293 3.76562H80.7736C79.7505 3.76562 78.918 4.59464 78.918 5.62121C78.918 6.64778 79.747 7.47679 80.7736 7.47679V7.48032Z" fill="#262626"/>
<path d="M15.6445 12.2322C15.6445 16.3914 12.3496 19.7639 8.28563 19.7639C4.22169 19.7639 0.277688 16.342 0.923262 12.2322C1.27251 10.0309 3.69605 9.8933 5.09656 8.52455C6.41946 7.22987 5.90794 5.16262 8.2821 4.70049C12.272 3.92086 15.6409 8.073 15.6409 12.2322H15.6445Z" fill="white" stroke="#262626" stroke-width="0.462132" stroke-miterlimit="10"/>
<path d="M9.61584 16.052C11.6635 16.052 13.3235 14.392 13.3235 12.3444C13.3235 10.2967 11.6635 8.63672 9.61584 8.63672C7.56817 8.63672 5.9082 10.2967 5.9082 12.3444C5.9082 14.392 7.56817 16.052 9.61584 16.052Z" fill="#FDB800" stroke="#262626" stroke-width="0.462132" stroke-miterlimit="10"/>
</svg>
