<svg width="224" height="224" viewBox="0 0 224 224" fill="none" xmlns="http://www.w3.org/2000/svg">
<path d="M193.157 112.219C193.157 135.173 174.549 153.781 151.595 153.781C128.64 153.781 110.032 135.173 110.032 112.219C110.032 89.2644 128.64 70.6562 151.595 70.6562C157.073 70.6562 160.958 72.5709 164.445 75.4246C166.206 76.8657 167.863 78.5444 169.581 80.3564C169.972 80.7692 170.367 81.1896 170.767 81.6152C172.11 83.0436 173.507 84.5306 175.004 85.9869C176.362 87.3095 177.766 88.5935 179.166 89.8744C181.973 92.4433 184.767 94.9993 187.159 97.8277C190.693 102.006 193.157 106.58 193.157 112.219Z" fill="#FDB800" stroke="#262626" stroke-width="2.1875"/>
<ellipse cx="123.87" cy="100.841" rx="2.13281" ry="2.84375" fill="black"/>
<ellipse cx="139.51" cy="100.841" rx="2.13281" ry="2.84375" fill="black"/>
<path d="M126.003 109.369C126.003 109.369 128.934 112.282 131.151 112.211C133.249 112.144 135.956 109.369 135.956 109.369" stroke="black" stroke-width="2.84375" stroke-linecap="round"/>
<path d="M144.404 106.527L141.977 108.582" stroke="#F77E7E" stroke-width="2.84375" stroke-linecap="round"/>
<path d="M148.806 106.838L146.379 108.892" stroke="#F77E7E" stroke-width="2.84375" stroke-linecap="round"/>
<rect x="-1.09375" y="1.09375" width="83.125" height="83.125" rx="41.5625" transform="matrix(-1 0 0 1 112.438 69.5625)" fill="white"/>
<rect x="-1.09375" y="1.09375" width="83.125" height="83.125" rx="41.5625" transform="matrix(-1 0 0 1 112.438 69.5625)" stroke="#262626" stroke-width="2.1875"/>
<ellipse cx="2.13281" cy="2.84375" rx="2.13281" ry="2.84375" transform="matrix(-1 0 0 1 91.875 100.842)" fill="black"/>
<ellipse cx="2.13281" cy="2.84375" rx="2.13281" ry="2.84375" transform="matrix(-1 0 0 1 76.2335 100.842)" fill="black"/>
<path d="M74.8125 112.214C77.6562 114.347 84.6234 117.333 89.7422 112.214" stroke="black" stroke-width="2.84375" stroke-linecap="round"/>
<path d="M64.7787 107.944L62.352 109.998" stroke="#F69898" stroke-width="2.84375" stroke-linecap="round"/>
<path d="M69.1767 108.267L66.7501 110.321" stroke="#F69898" stroke-width="2.84375" stroke-linecap="round"/>
</svg>
