<svg width="16" height="16" viewBox="0 0 16 16" fill="none" xmlns="http://www.w3.org/2000/svg">
<g id="Vector">
<path fill-rule="evenodd" clip-rule="evenodd" d="M2.80769 3.44486C2.80769 2.29181 3.75478 1.35708 4.92308 1.35708H8C8.31863 1.35708 8.57692 1.61201 8.57692 1.92648C8.57692 2.24094 8.31863 2.49587 8 2.49587H4.92308C4.39203 2.49587 3.96154 2.92075 3.96154 3.44486V4.20405C3.96154 4.51852 3.70324 4.77344 3.38462 4.77344C3.06599 4.77344 2.80769 4.51852 2.80769 4.20405V3.44486ZM3.38462 11.2266C3.70324 11.2266 3.96154 11.4815 3.96154 11.796V12.5551C3.96154 13.0793 4.39203 13.5041 4.92308 13.5041H8C8.31863 13.5041 8.57692 13.7591 8.57692 14.0735C8.57692 14.388 8.31863 14.6429 8 14.6429H4.92308C3.75478 14.6429 2.80769 13.7082 2.80769 12.5551V11.796C2.80769 11.4815 3.06599 11.2266 3.38462 11.2266Z" fill="#737373"/>
<path fill-rule="evenodd" clip-rule="evenodd" d="M8.57692 2.58963C8.57692 1.92868 9.24441 1.47016 9.87242 1.69972L13.7186 3.10562C14.0958 3.2435 14.3462 3.59854 14.3462 3.99553V12.0045C14.3462 12.4014 14.0958 12.7565 13.7186 12.8944L9.87242 14.3003C9.24442 14.5298 8.57692 14.0713 8.57692 13.4104V2.58963ZM10.2732 0.631823C8.89156 0.126797 7.42308 1.13554 7.42308 2.58963V13.4104C7.42308 14.8645 8.89156 15.8732 10.2732 15.3682L14.1193 13.9623C14.9492 13.6589 15.5 12.8778 15.5 12.0045V3.99553C15.5 3.12215 14.9492 2.34106 14.1193 2.03772L10.2732 0.631823Z" fill="#737373"/>
<path fill-rule="evenodd" clip-rule="evenodd" d="M3.02333 6.079C2.79803 5.85664 2.43274 5.85664 2.20744 6.079L0.668977 7.59738C0.443674 7.81974 0.443674 8.18026 0.668977 8.40262L2.20744 9.92101C2.43274 10.1434 2.79803 10.1434 3.02333 9.92101C3.24863 9.69864 3.24863 9.33812 3.02333 9.11576L2.46974 8.5694H5.69231C6.01093 8.5694 6.26923 8.31447 6.26923 8C6.26923 7.68553 6.01093 7.43061 5.69231 7.43061H2.46974L3.02333 6.88424C3.24863 6.66188 3.24863 6.30136 3.02333 6.079Z" fill="#737373"/>
</g>
</svg>
