<svg width="195" height="195" viewBox="0 0 195 195" fill="none" xmlns="http://www.w3.org/2000/svg">
<rect x="-2.5" y="2.5" width="190" height="190" rx="95" transform="matrix(-1 0 0 1 190.002 0)" fill="#FFF1CC"/>
<rect x="-2.5" y="2.5" width="190" height="190" rx="95" transform="matrix(-1 0 0 1 190.002 0)" stroke="#262626" stroke-width="5"/>
<ellipse cx="4.875" cy="6.5" rx="4.875" ry="6.5" transform="matrix(-1 0 0 1 142.998 71.4971)" fill="black"/>
<ellipse cx="4.875" cy="6.5" rx="4.875" ry="6.5" transform="matrix(-1 0 0 1 107.246 71.4971)" fill="black"/>
<path d="M103.998 97.4897C110.498 102.365 126.423 109.19 138.123 97.4897" stroke="black" stroke-width="6.5" stroke-linecap="round"/>
<path d="M81.0635 87.7294L75.5169 92.4248" stroke="#F69898" stroke-width="6.5" stroke-linecap="round"/>
<path d="M91.1163 88.4667L85.5696 93.1621" stroke="#F69898" stroke-width="6.5" stroke-linecap="round"/>
</svg>
